<svg xmlns="http://www.w3.org/2000/svg" xmlns:xlink="http://www.w3.org/1999/xlink" width="176" height="179" viewBox="0 0 176 179">
  <defs>
    <clipPath id="clip-path">
      <path id="path1035" d="M0-682.665H94.732v94.732H0Z" transform="translate(0 682.665)"/>
    </clipPath>
  </defs>
  <g id="Group_3695" data-name="Group 3695" transform="translate(-6340 -2844)">
    <g id="Group_3694" data-name="Group 3694" transform="translate(378)">
      <g id="Group_3690" data-name="Group 3690" transform="translate(1011)">
        <path id="Rectangle_1645" data-name="Rectangle 1645" d="M86,0h90a0,0,0,0,1,0,0V179a0,0,0,0,1,0,0H0a0,0,0,0,1,0,0V86A86,86,0,0,1,86,0Z" transform="translate(4951 2844)" fill="#fcf4ee" opacity="0.98"/>
      </g>
    </g>
    <g id="g1029" transform="translate(6385.967 3572.632)">
      <g id="g1031" transform="translate(0 -682.665)">
        <g id="g1033" clip-path="url(#clip-path)">
          <g id="g1039" transform="translate(2.035 3.185)">
            <path id="path1041" d="M-4.794-287.623H.451A2.626,2.626,0,0,1,3.074-285v9.473h.37A4.256,4.256,0,0,1,7.7-279.779H71.832a4.256,4.256,0,0,1,4.251,4.252h.37V-285a2.626,2.626,0,0,1,2.623-2.623h5.245a2.615,2.615,0,0,1,.715.1c.037-.75.057-1.505.057-2.265a45.345,45.345,0,0,0-35.154-44.18l-.185.145v24.978a.741.741,0,0,1-.74.74H-.219a.741.741,0,0,1-.74-.74v-.452l-.185-.042a45.149,45.149,0,0,0-4.423,19.551c0,.76.021,1.514.058,2.265a2.613,2.613,0,0,1,.715-.1" transform="translate(5.567 333.967)" fill="#d8ecfe"/>
          </g>
          <g id="g1043" transform="translate(68.555 21.25)">
            <path id="path1045" d="M-31.815-93.121c.092-1.041.143-2.125.143-3.242,0-4.781-.9-9-2.264-11.543a.423.423,0,0,0-.742,0c-1.368,2.538-2.264,6.761-2.264,11.543,0,1.116.051,2.2.143,3.242Z" transform="translate(36.941 108.125)" fill="#8bc727"/>
          </g>
          <g id="g1047" transform="translate(68.555 21.25)">
            <path id="path1049" d="M-15.214-93.121c-.092-1.041-.143-2.125-.143-3.242a29.648,29.648,0,0,1,1.48-9.756,13.431,13.431,0,0,0-.784-1.786.423.423,0,0,0-.742,0c-1.368,2.538-2.264,6.761-2.264,11.543,0,1.116.051,2.2.143,3.242Z" transform="translate(17.665 108.125)" fill="#81b823"/>
          </g>
          <g id="g1051" transform="translate(79.927 27.013)">
            <path id="path1053" d="M-31.639-57.354a23.277,23.277,0,0,0-2.178-9.021.423.423,0,0,0-.742,0,23.273,23.273,0,0,0-2.178,9.021Z" transform="translate(36.737 66.596)" fill="#8bc727"/>
          </g>
          <g id="g1055" transform="translate(79.927 27.013)">
            <path id="path1057" d="M-12.038-57.354a26.218,26.218,0,0,1,1.579-7.72,12.629,12.629,0,0,0-.6-1.3.423.423,0,0,0-.742,0,23.277,23.277,0,0,0-2.178,9.021Z" transform="translate(13.977 66.596)" fill="#81b823"/>
          </g>
          <g id="g1059" transform="translate(74.405 7.189)">
            <path id="path1061" d="M0-73c0,4.781.9,9,2.264,11.543a.422.422,0,0,0,.741,0C4.374-64,5.269-68.221,5.269-73s-.9-9-2.264-11.543a.422.422,0,0,0-.741,0C.9-82.007,0-77.784,0-73" transform="translate(0 84.765)" fill="#8bc727"/>
          </g>
          <g id="g1063" transform="translate(74.405 7.189)">
            <path id="path1065" d="M-10.609-180.392h1.85v-6.95c.043-.106.086-.212.128-.321A29.161,29.161,0,0,1-10.213-197.7a29.161,29.161,0,0,1,1.582-10.032,12.961,12.961,0,0,0-.682-1.51.423.423,0,0,0-.742,0c-1.368,2.538-2.264,6.761-2.264,11.543a28.537,28.537,0,0,0,1.709,10.353Z" transform="translate(12.319 209.458)" fill="#81b823"/>
          </g>
          <g id="g1067" transform="translate(5.33 36.07)">
            <path id="path1069" d="M-16.9-83.535a2.626,2.626,0,0,1,2.623,2.623v9.473h.37a4.256,4.256,0,0,1,4.251-4.252H54.479a4.256,4.256,0,0,1,4.251,4.252h.37v-9.473a2.626,2.626,0,0,1,2.623-2.623h2.723V-94.55A2.444,2.444,0,0,0,62-96.994H38.867a2.444,2.444,0,0,0-2.444,2.444,2.444,2.444,0,0,0-2.444-2.444H10.843A2.444,2.444,0,0,0,8.4-94.55a2.444,2.444,0,0,0-2.444-2.444H-17.181a2.444,2.444,0,0,0-2.444,2.444v11.016Z" transform="translate(19.625 96.994)" fill="#c2bce0"/>
          </g>
          <g id="g1071" transform="translate(5.33 36.07)">
            <path id="path1073" d="M-15.168,0a2.444,2.444,0,0,0-2.444,2.444v10.83h2.723a2.807,2.807,0,0,1,2.607,1.768V2.444A2.444,2.444,0,0,1-9.838,0Z" transform="translate(17.612)" fill="#aca5d6"/>
          </g>
          <g id="g1075" transform="translate(8.979 71.484)">
            <path id="path1077" d="M0,0A45.3,45.3,0,0,0,38.386,21.212,45.3,45.3,0,0,0,76.773,0Z" fill="#fee97d"/>
          </g>
          <g id="g1079" transform="translate(6.738 71.484)">
            <path id="path1081" d="M0,0V5.495a.925.925,0,0,0,.925.925H4.3a.925.925,0,0,0,.925-.925V0Z" fill="#f6a96c"/>
          </g>
          <g id="g1083" transform="translate(6.738 71.484)">
            <path id="path1085" d="M-15.287-34.1V-39.6h-2.463V-34.1a.925.925,0,0,0,.925.925h2.463a.925.925,0,0,1-.925-.925" transform="translate(17.751 39.599)" fill="#ea9b58"/>
          </g>
          <g id="g1087" transform="translate(82.764 71.484)">
            <path id="path1089" d="M0,0V5.495a.925.925,0,0,0,.925.925H4.3a.925.925,0,0,0,.925-.925V0Z" fill="#f6a96c"/>
          </g>
          <g id="g1091" transform="translate(82.764 71.484)">
            <path id="path1093" d="M-15.287-34.1V-39.6h-2.463V-34.1a.925.925,0,0,0,.925.925h2.463a.925.925,0,0,1-.925-.925" transform="translate(17.751 39.599)" fill="#ea9b58"/>
          </g>
          <g id="g1095" transform="translate(64.261 71.484)">
            <path id="path1097" d="M0,0V5.495a.925.925,0,0,0,.925.925H4.3a.925.925,0,0,0,.925-.925V0Z" fill="#f6a96c"/>
          </g>
          <g id="g1099" transform="translate(64.261 71.484)">
            <path id="path1101" d="M-15.286-34.1V-39.6h-2.463V-34.1a.925.925,0,0,0,.925.925h2.463a.925.925,0,0,1-.925-.925" transform="translate(17.749 39.599)" fill="#ea9b58"/>
          </g>
          <g id="g1103" transform="translate(25.242 71.484)">
            <path id="path1105" d="M0,0V5.495a.925.925,0,0,0,.925.925H4.3a.925.925,0,0,0,.925-.925V0Z" fill="#f6a96c"/>
          </g>
          <g id="g1107" transform="translate(25.242 71.484)">
            <path id="path1109" d="M-15.286-34.1V-39.6h-2.463V-34.1a.925.925,0,0,0,.925.925h2.463a.925.925,0,0,1-.925-.925" transform="translate(17.749 39.599)" fill="#ea9b58"/>
          </g>
          <g id="g1111" transform="translate(10.676 66.053)">
            <path id="path1113" d="M-455.419-1.153h-.185v-.186h-73.01v.185h-.185v5.04l.185.391h73.01l.185-.305Z" transform="translate(528.799 1.339)" fill="#aca5d6"/>
          </g>
          <g id="g1115" transform="translate(33.354 36.07)">
            <path id="path1117" d="M-29.018-33.989v-3.033a2.444,2.444,0,0,1,2.444-2.444h-4.676a2.444,2.444,0,0,0-2.444,2.444v3.033Z" transform="translate(33.693 39.465)" fill="#aca5d6"/>
          </g>
          <g id="g1119" transform="translate(61.378 36.07)">
            <path id="path1121" d="M-33.08-33.989v-3.033a2.444,2.444,0,0,1,2.444-2.444h-5.33a2.444,2.444,0,0,0-2.444,2.444v3.033Z" transform="translate(38.411 39.465)" fill="#aca5d6"/>
          </g>
          <g id="g1123" transform="translate(24.642 41.546)">
            <path id="path1125" d="M-98.665-98.227a2.679,2.679,0,0,0,.755-1.866v-11.27a2.691,2.691,0,0,0-2.691-2.691h-11.27a2.691,2.691,0,0,0-2.691,2.691v11.27a2.68,2.68,0,0,0,.755,1.866Z" transform="translate(114.562 114.054)" fill="#fff"/>
          </g>
          <g id="g1127" transform="translate(24.642 41.546)">
            <path id="path1129" d="M-33.179-98.227a2.679,2.679,0,0,1-.755-1.866v-11.27a2.691,2.691,0,0,1,2.691-2.691h-4.592a2.691,2.691,0,0,0-2.691,2.691v11.27a2.679,2.679,0,0,0,.755,1.866Z" transform="translate(38.525 114.054)" fill="#eaf6ff"/>
          </g>
          <g id="g1131" transform="translate(53.437 41.546)">
            <path id="path1133" d="M-98.664-98.227a2.679,2.679,0,0,0,.755-1.866v-11.27a2.691,2.691,0,0,0-2.691-2.691h-11.27a2.691,2.691,0,0,0-2.691,2.691v11.27a2.68,2.68,0,0,0,.755,1.866Z" transform="translate(114.561 114.054)" fill="#fff"/>
          </g>
          <g id="g1135" transform="translate(53.437 41.546)">
            <path id="path1137" d="M-32.455-98.227a2.679,2.679,0,0,1-.755-1.866v-11.27a2.691,2.691,0,0,1,2.691-2.691h-4.475a2.691,2.691,0,0,0-2.691,2.691v11.27a2.68,2.68,0,0,0,.755,1.866Z" transform="translate(37.684 114.054)" fill="#eaf6ff"/>
          </g>
          <g id="g1139" transform="translate(10.676 57.188)">
            <path id="path1141" d="M0-56.172H73.38v-4.084l-.185-.53a4.437,4.437,0,0,0-4.437-4.437H4.622A4.436,4.436,0,0,0,.185-60.786L0-60.255Z" transform="translate(0 65.223)" fill="#8379c1"/>
          </g>
          <g id="g1143" transform="translate(10.676 57.188)">
            <path id="path1145" d="M-67.383,0h-6.235a4.437,4.437,0,0,0-4.437,4.437l-.185.53V9.051h6.42V4.437A4.437,4.437,0,0,1-67.383,0" transform="translate(78.24 0)" fill="#6e61b6"/>
          </g>
          <g id="g1147" transform="translate(0 49.344)">
            <path id="path1149" d="M-67.406-138.557h-9.011a1.85,1.85,0,0,1-1.85-1.85v-17.667a2.808,2.808,0,0,1,2.808-2.808h5.245a2.808,2.808,0,0,1,2.808,2.808Z" transform="translate(78.266 160.882)" fill="#978ecb"/>
          </g>
          <g id="g1151" transform="translate(0 49.344)">
            <path id="path1153" d="M-29.051-127.075v-17.667a2.808,2.808,0,0,1,2.808-2.808h-4.681a2.808,2.808,0,0,0-2.808,2.808v17.667a1.85,1.85,0,0,0,1.85,1.85H-27.2a1.85,1.85,0,0,1-1.85-1.85" transform="translate(33.732 147.55)" fill="#8379c1"/>
          </g>
          <g id="g1155" transform="translate(83.871 49.344)">
            <path id="path1157" d="M-55.923-138.557h-9.011v-19.517a2.808,2.808,0,0,1,2.808-2.808h5.245a2.808,2.808,0,0,1,2.808,2.808v17.667a1.85,1.85,0,0,1-1.85,1.85" transform="translate(64.933 160.882)" fill="#978ecb"/>
          </g>
          <g id="g1159" transform="translate(6.458 2.502)">
            <path id="path1161" d="M-294.078,0l-.185.156v22.32a.37.37,0,0,1-.37.37h-18.881a.371.371,0,0,1-.37-.37V1.72l-.185-.132q-1.887.589-3.7,1.335l-.185.274V22.476a.37.37,0,0,1-.37.37h-18.881a.371.371,0,0,1-.37-.37V19.027l-.185-.058a45.285,45.285,0,0,0-3.7,6.344v.494a.925.925,0,0,0,.925.925H-291.3a.925.925,0,0,0,.925-.925V.683Q-292.2.265-294.078,0" transform="translate(341.462)" fill="#eaf6ff"/>
          </g>
          <g id="g1163" transform="translate(10.158 5.425)">
            <path id="path1165" d="M0-99.585v3.507a.555.555,0,0,0,.555.555H19.436a.555.555,0,0,0,.555-.555V-115.63A45.486,45.486,0,0,0,0-99.585" transform="translate(0 115.63)" fill="#b3dafe"/>
          </g>
          <g id="g1167" transform="translate(10.158 15.845)">
            <path id="path1169" d="M-28.763-56.683v-9.133A45.55,45.55,0,0,0-33.4-60.19v3.507a.555.555,0,0,0,.555.555h4.634a.555.555,0,0,1-.555-.555" transform="translate(33.397 65.816)" fill="#8ac9fe"/>
          </g>
          <g id="g1171" transform="translate(33.85 2.035)">
            <path id="path1173" d="M-83.883,0A45.3,45.3,0,0,0-97.4,2.051V22.943a.555.555,0,0,0,.555.555h18.881a.555.555,0,0,0,.555-.555V.463A45.689,45.689,0,0,0-83.883,0" transform="translate(97.398 0)" fill="#b3dafe"/>
          </g>
          <g id="g1175" transform="translate(33.85 2.908)">
            <path id="path1177" d="M-28.764-136.975v-22.07a45.064,45.064,0,0,0-4.635,1.178v20.892a.555.555,0,0,0,.555.555h4.635a.555.555,0,0,1-.555-.555" transform="translate(33.399 159.045)" fill="#8ac9fe"/>
          </g>
          <g id="g1179" transform="translate(28.493 80.485)">
            <path id="path1181" d="M-219.9-28.708H-253.02a2.32,2.32,0,0,1-2.313-2.313,2.32,2.32,0,0,1,2.313-2.313H-219.9a2.32,2.32,0,0,1,2.313,2.313,2.32,2.32,0,0,1-2.313,2.313" transform="translate(255.333 33.333)" fill="#fef0ae"/>
          </g>
        </g>
      </g>
    </g>
  </g>
</svg>
