<svg xmlns="http://www.w3.org/2000/svg" width="176" height="179" viewBox="0 0 176 179">
  <g id="Group_3704" data-name="Group 3704" transform="translate(-6875 -2844)">
    <g id="Group_3703" data-name="Group 3703" transform="translate(279)">
      <g id="Group_3697" data-name="Group 3697" transform="translate(256)">
        <g id="Group_3694" data-name="Group 3694" transform="translate(378)">
          <g id="Group_3690" data-name="Group 3690" transform="translate(1011)">
            <path id="Rectangle_1645" data-name="Rectangle 1645" d="M86,0h90a0,0,0,0,1,0,0V179a0,0,0,0,1,0,0H0a0,0,0,0,1,0,0V86A86,86,0,0,1,86,0Z" transform="translate(4951 2844)" fill="#fcf4ee" opacity="0.98"/>
          </g>
        </g>
      </g>
    </g>
    <g id="foreclosure" transform="translate(6901.333 2874.647)">
      <g id="Group_3699" data-name="Group 3699" transform="translate(31.82 16)">
        <path id="Path_2556" data-name="Path 2556" d="M104.593,30.63h5.034a2.172,2.172,0,0,1,2.166,2.166V43.482a2.172,2.172,0,0,1-2.166,2.166h-5.034a2.172,2.172,0,0,1-2.166-2.166V32.8A2.172,2.172,0,0,1,104.593,30.63Z" transform="translate(-89.82 -28.018)" fill="#837683" fill-rule="evenodd"/>
        <path id="Path_2557" data-name="Path 2557" d="M127.587,30.63h2.707A2.172,2.172,0,0,1,132.46,32.8V43.481a2.172,2.172,0,0,1-2.166,2.166h-2.707a2.172,2.172,0,0,0,2.166-2.166V32.8A2.172,2.172,0,0,0,127.587,30.63Z" transform="translate(-110.487 -28.018)" fill="#685e68" fill-rule="evenodd"/>
        <path id="Path_2558" data-name="Path 2558" d="M99.862,34.519V76.277H38.432V34.519h-5.6a1.015,1.015,0,0,1-.417-1.939L69.147,16,105.88,32.58a1.015,1.015,0,0,1-.417,1.939Z" transform="translate(-31.82 -16)" fill="#eceff1" fill-rule="evenodd"/>
        <path id="Path_2559" data-name="Path 2559" d="M260.488,34.519V76.277h-3.822V34.519Zm-33.127-17.43,34.32,15.491a1.015,1.015,0,0,1-.417,1.939h4.826a1.015,1.015,0,0,0,.417-1.939L229.774,16Z" transform="translate(-192.446 -16)" fill="#d1d1d6" fill-rule="evenodd"/>
        <path id="Path_2560" data-name="Path 2560" d="M263.791,155.9h12.077a2.172,2.172,0,0,1,2.166,2.166v7.555a2.172,2.172,0,0,1-2.166,2.166H263.791a2.172,2.172,0,0,1-2.166-2.166v-7.555A2.172,2.172,0,0,1,263.791,155.9Z" transform="translate(-220.592 -130.918)" fill="#d8ecfe" fill-rule="evenodd"/>
        <path id="Path_2561" data-name="Path 2561" d="M263.79,155.9H266.5a2.172,2.172,0,0,0-2.166,2.166v7.555a2.172,2.172,0,0,0,2.166,2.166H263.79a2.172,2.172,0,0,1-2.166-2.166v-7.555A2.172,2.172,0,0,1,263.79,155.9Z" transform="translate(-220.592 -130.918)" fill="#c4e2ff" fill-rule="evenodd"/>
        <path id="Path_2562" data-name="Path 2562" d="M126.611,204.914h12.74a2.172,2.172,0,0,1,2.166,2.166v24.07a2.172,2.172,0,0,1-2.166,2.166h-12.74a2.172,2.172,0,0,1-2.166-2.166V207.08A2.172,2.172,0,0,1,126.611,204.914Z" transform="translate(-107.906 -171.183)" fill="#ecba78" fill-rule="evenodd"/>
        <path id="Path_2563" data-name="Path 2563" d="M126.61,204.914h2.707a2.172,2.172,0,0,0-2.166,2.166v24.07a2.172,2.172,0,0,0,2.166,2.166H126.61a2.172,2.172,0,0,1-2.166-2.166V207.08A2.172,2.172,0,0,1,126.61,204.914Z" transform="translate(-107.906 -171.183)" fill="#e3a76f" fill-rule="evenodd"/>
        <path id="Path_2564" data-name="Path 2564" d="M38.5,336.347h69.155a1.9,1.9,0,0,1,1.9,1.895v4a1.9,1.9,0,0,1-1.9,1.9H38.5a1.9,1.9,0,0,1-1.895-1.9v-4A1.9,1.9,0,0,1,38.5,336.347Z" transform="translate(-35.752 -279.148)" fill="#837683" fill-rule="evenodd"/>
        <path id="Path_2565" data-name="Path 2565" d="M106.844,336.347h.812a1.9,1.9,0,0,1,1.895,1.9v4a1.9,1.9,0,0,1-1.895,1.895H38.5a1.9,1.9,0,0,1-1.9-1.895v-.812h68.343a1.9,1.9,0,0,0,1.895-1.895v-3.186Z" transform="translate(-35.751 -279.148)" fill="#685e68" fill-rule="evenodd"/>
      </g>
      <g id="Group_3700" data-name="Group 3700" transform="translate(62.91 38.241)">
        <path id="Path_2566" data-name="Path 2566" d="M207.221,140.561h39.223a1.235,1.235,0,0,1,.9.375l7.184,7.184a1.236,1.236,0,0,1,.375.9v53.722a1.282,1.282,0,0,1-1.28,1.28H207.221a1.282,1.282,0,0,1-1.28-1.28V141.84A1.282,1.282,0,0,1,207.221,140.561Z" transform="translate(-205.941 -140.561)" fill="#8ac9fe" fill-rule="evenodd"/>
        <path id="Path_2567" data-name="Path 2567" d="M207.221,140.561h2.341v63.465h-2.341a1.282,1.282,0,0,1-1.28-1.28V141.841A1.282,1.282,0,0,1,207.221,140.561Z" transform="translate(-205.941 -140.561)" fill="#60b7ff" fill-rule="evenodd"/>
        <path id="Path_2568" data-name="Path 2568" d="M435.749,141.182a1.284,1.284,0,0,1,.375.264l7.184,7.184a1.285,1.285,0,0,1,.264.375h-7.183a.641.641,0,0,1-.64-.64v-7.183Z" transform="translate(-394.716 -141.071)" fill="#60b7ff" fill-rule="evenodd"/>
        <path id="Path_2569" data-name="Path 2569" d="M263.883,413.954a1.428,1.428,0,0,1,0,2.857H236.175a1.428,1.428,0,0,1,0-2.857Zm5.392,2.857a1.428,1.428,0,0,1,0-2.857H272a1.428,1.428,0,0,1,0,2.857Zm0,5.8a1.428,1.428,0,1,1,0-2.857H272a1.428,1.428,0,0,1,0,2.857Zm-5.392-2.857a1.428,1.428,0,0,1,0,2.857H236.175a1.428,1.428,0,1,1,0-2.857Z" transform="translate(-229.604 -365.139)" fill="#eceff1" fill-rule="evenodd"/>
      </g>
      <g id="Group_3701" data-name="Group 3701" transform="translate(67.158 72.96)">
        <path id="Path_2570" data-name="Path 2570" d="M256.732,339.519l-.836-3.714a1.06,1.06,0,0,0-1.063-.8H242.875a1.06,1.06,0,0,0-1.063.8l-.836,3.714-.336,2.655,16.65.353Z" transform="translate(-238.694 -335.01)" fill="#8d9ca8" fill-rule="evenodd"/>
        <path id="Path_2571" data-name="Path 2571" d="M313.808,339.519l-.836-3.714a1.06,1.06,0,0,0-1.063-.8h-1.786a1.06,1.06,0,0,1,1.063.8l.836,3.714.552,2.97,1.793.038Z" transform="translate(-295.77 -335.01)" fill="#8192a5" fill-rule="evenodd"/>
        <path id="Path_2572" data-name="Path 2572" d="M230.963,360.265H248.83a1.23,1.23,0,0,1,1.227,1.227v2.056a1.23,1.23,0,0,1-1.227,1.227H230.963a1.23,1.23,0,0,1-1.227-1.227v-2.056A1.23,1.23,0,0,1,230.963,360.265Z" transform="translate(-229.736 -355.756)" fill="#9facba" fill-rule="evenodd"/>
        <path id="Path_2573" data-name="Path 2573" d="M230.963,364.774h17.867a1.23,1.23,0,0,0,1.227-1.227v-2.056a1.23,1.23,0,0,0-1.227-1.227h-.559v1.5a1.23,1.23,0,0,1-1.227,1.227H229.737v.559A1.23,1.23,0,0,0,230.963,364.774Z" transform="translate(-229.737 -355.755)" fill="#8d9ca8" fill-rule="evenodd"/>
      </g>
      <g id="Group_3702" data-name="Group 3702" transform="translate(72.965 44.369)">
        <path id="Path_2574" data-name="Path 2574" d="M332.476,242.037l-3.064,3.064,18.2,19.093a1.581,1.581,0,0,0,1.085.511,1.33,1.33,0,0,0,1.058-.392l1.936-1.936a1.331,1.331,0,0,0,.392-1.058,1.582,1.582,0,0,0-.511-1.085Z" transform="translate(-317.421 -230.046)" fill="#e3a76f" fill-rule="evenodd"/>
        <path id="Path_2575" data-name="Path 2575" d="M342.406,242.037l-.906.906,19.093,18.2a1.582,1.582,0,0,1,.511,1.085,1.33,1.33,0,0,1-.392,1.058l.906-.906a1.331,1.331,0,0,0,.392-1.058,1.582,1.582,0,0,0-.511-1.085Z" transform="translate(-327.35 -230.046)" fill="#c48958" fill-rule="evenodd"/>
        <path id="Path_2576" data-name="Path 2576" d="M292.826,202.35c1.107-.94,2.449-1.959,4.318-3.35l-6.535-6.535c-4.268,5.738-5.033,6.5-10.77,10.77l6.535,6.535c1.391-1.87,2.41-3.211,3.35-4.318A25.533,25.533,0,0,1,292.826,202.35Z" transform="translate(-276.699 -189.325)" fill="#c48958" fill-rule="evenodd"/>
        <path id="Path_2577" data-name="Path 2577" d="M291.516,193.372l-.906-.906c-4.268,5.738-5.033,6.5-10.77,10.77l.906.906C286.484,199.873,287.247,199.109,291.516,193.372Z" transform="translate(-276.7 -189.326)" fill="#ab7448" fill-rule="evenodd"/>
        <path id="Path_2578" data-name="Path 2578" d="M333.256,175.2l-1.549,1.549a1.1,1.1,0,0,0,0,1.548l7.5,7.5a1.1,1.1,0,0,0,1.548,0l1.549-1.549a1.1,1.1,0,0,0,0-1.548l-7.5-7.5A1.1,1.1,0,0,0,333.256,175.2Z" transform="translate(-319.044 -174.88)" fill="#e3a76f" fill-rule="evenodd"/>
        <path id="Path_2579" data-name="Path 2579" d="M337.683,175.2l-.906.906a1.1,1.1,0,0,1,1.548,0l7.5,7.5a1.1,1.1,0,0,1,0,1.548l.906-.906a1.1,1.1,0,0,0,0-1.548l-7.5-7.5A1.1,1.1,0,0,0,337.683,175.2Z" transform="translate(-323.471 -174.88)" fill="#c48958" fill-rule="evenodd"/>
        <path id="Path_2580" data-name="Path 2580" d="M264.123,244.333l-1.549,1.549a1.1,1.1,0,0,0,0,1.548l7.505,7.5a1.1,1.1,0,0,0,1.548,0l1.549-1.549a1.1,1.1,0,0,0,0-1.548l-7.505-7.5A1.1,1.1,0,0,0,264.123,244.333Z" transform="translate(-262.255 -231.669)" fill="#e3a76f" fill-rule="evenodd"/>
        <path id="Path_2581" data-name="Path 2581" d="M271.627,259.361l.906-.906a1.1,1.1,0,0,1-1.548,0l-7.5-7.5a1.1,1.1,0,0,1,0-1.548l-.906.906a1.1,1.1,0,0,0,0,1.548l7.505,7.5A1.1,1.1,0,0,0,271.627,259.361Z" transform="translate(-262.254 -236.096)" fill="#c48958" fill-rule="evenodd"/>
      </g>
    </g>
  </g>
</svg>
