<svg width="300" height="60" viewBox="0 0 300 60" fill="none" xmlns="http://www.w3.org/2000/svg">
<path d="M45.8613 1.67212C36.1855 1.67212 27.6467 6.52404 22.5351 13.9236L28.4234 16.4197L38.5623 42.1578C38.7635 42.1368 38.9671 42.1251 39.1753 42.1251C40.7941 42.1251 42.2609 42.7824 43.3207 43.8445L64.8128 34.763C65.2268 34.5875 65.7064 34.777 65.8889 35.1864L66.7287 37.0766C66.9136 37.4954 66.7217 37.9843 66.3006 38.1645L44.9887 47.2764C45.0167 47.508 45.0331 47.742 45.0331 47.9806C45.0331 51.2136 42.4107 53.8361 39.1776 53.8361C35.9445 53.8361 33.3221 51.2136 33.3221 47.9806C33.3221 46.336 34.0005 44.8505 35.093 43.7884L25.5061 19.2714L20.5396 17.29C18.6166 21.1126 17.5334 25.4287 17.5334 29.9999C17.5334 45.6459 30.2177 58.3278 45.8613 58.3278C61.5049 58.3278 74.1891 45.6435 74.1891 29.9999C74.1891 14.3564 61.5072 1.67212 45.8613 1.67212ZM49.4499 32.4937L51.3448 31.689L52.1496 33.5839L50.2547 34.3887L49.4499 32.4937ZM51.8478 31.4784L53.7427 30.6737L54.5475 32.5686L52.6526 33.3734L51.8478 31.4784ZM51.2723 36.7865L50.4676 34.8916L52.3625 34.0869L53.1672 35.9818L51.2723 36.7865ZM53.6679 35.7689L52.8631 33.874L54.758 33.0692L55.5628 34.9642L53.6679 35.7689ZM58.2882 34.0986L56.1663 29.3285L58.4075 28.353L49.0382 25.6299L43.6154 34.6179L46.79 33.2938L48.6919 37.9773L42.3101 40.7097L33.1279 18.7989L42.0223 15.0301L45.0916 22.2589L47.8919 21.0377L44.8273 13.8417L53.7638 10.0986L62.9623 32.0446L58.2882 34.0986Z" fill="#EC1B26"/>
<path d="M39.1776 51.4429C41.0898 51.4429 42.6399 49.8928 42.6399 47.9806C42.6399 46.0684 41.0898 44.5183 39.1776 44.5183C37.2654 44.5183 35.7153 46.0684 35.7153 47.9806C35.7153 49.8928 37.2654 51.4429 39.1776 51.4429Z" fill="#EC1B26"/>
<path d="M93.95 37.7505V39.6244H83.949V23.1479H86.3235V37.7505H93.95Z" fill="#512D34"/>
<path d="M110.915 39.6244H109.07C108.857 39.6244 108.684 39.5752 108.553 39.4746C108.422 39.374 108.323 39.2477 108.258 39.0957L106.609 35.1187H98.699L97.0497 39.0957C97.0006 39.2337 96.907 39.3553 96.7667 39.4629C96.6263 39.5706 96.4555 39.6244 96.2497 39.6244H94.4039L101.452 23.1479H103.864L110.915 39.6244ZM105.944 33.5068L103.177 26.8044C103.095 26.6056 103.008 26.374 102.919 26.1096C102.828 25.8453 102.744 25.5646 102.662 25.2651C102.489 25.8851 102.313 26.4044 102.133 26.8161L99.3657 33.5068H105.944Z" fill="#512D34"/>
<path d="M127.523 23.1481V39.6245H126.33C126.14 39.6245 125.984 39.5941 125.857 39.5333C125.731 39.4724 125.605 39.3695 125.483 39.2221L115.283 26.8046C115.299 26.9964 115.311 27.1836 115.321 27.3684C115.328 27.5532 115.332 27.724 115.332 27.8854V39.6245H113.241V23.1481H114.471C114.579 23.1481 114.668 23.1528 114.743 23.1645C114.818 23.1762 114.883 23.1949 114.939 23.2229C114.995 23.251 115.054 23.2885 115.112 23.3376C115.168 23.3867 115.232 23.4499 115.297 23.5271L125.497 35.9329C125.481 35.7341 125.467 35.5399 125.455 35.3528C125.443 35.1656 125.436 34.9878 125.436 34.817V23.1458H127.523V23.1481Z" fill="#512D34"/>
<path d="M147.305 31.392C147.305 32.6272 147.097 33.7501 146.678 34.7607C146.259 35.7737 145.67 36.6393 144.907 37.3598C144.144 38.0804 143.227 38.6371 142.158 39.0325C141.087 39.4278 139.905 39.6244 138.609 39.6244H132.029V23.1479H138.609C139.905 23.1479 141.089 23.3445 142.158 23.7398C143.23 24.1352 144.144 24.6943 144.907 25.4195C145.67 26.1447 146.259 27.0126 146.678 28.0233C147.097 29.0339 147.305 30.1591 147.305 31.392ZM144.858 31.392C144.858 30.379 144.71 29.476 144.416 28.6783C144.121 27.8806 143.702 27.2068 143.162 26.6547C142.621 26.1026 141.964 25.6815 141.194 25.3891C140.422 25.099 139.561 24.9516 138.612 24.9516H134.417V37.8183H138.612C139.564 37.8183 140.425 37.6733 141.194 37.3809C141.964 37.0908 142.621 36.6697 143.162 36.1223C143.702 35.5749 144.121 34.9011 144.416 34.1034C144.71 33.308 144.858 32.4026 144.858 31.392Z" fill="#512D34"/>
<path d="M159.755 25.7237C159.68 25.8383 159.601 25.9249 159.514 25.9834C159.427 26.0419 159.322 26.0699 159.201 26.0699C159.06 26.0699 158.896 26.0044 158.709 25.8734C158.522 25.7424 158.286 25.5997 158.003 25.443C157.72 25.2862 157.378 25.1412 156.98 25.0125C156.583 24.8815 156.101 24.816 155.535 24.816C155.001 24.816 154.531 24.8839 154.126 25.0172C153.719 25.1506 153.38 25.333 153.106 25.5623C152.83 25.7916 152.625 26.0629 152.484 26.3717C152.344 26.6829 152.276 27.0174 152.276 27.3777C152.276 27.8385 152.398 28.2199 152.639 28.5216C152.88 28.8234 153.2 29.0831 153.598 29.2983C153.995 29.5135 154.447 29.6984 154.95 29.8551C155.455 30.0118 155.972 30.1756 156.501 30.344C157.03 30.5125 157.547 30.702 158.052 30.9125C158.557 31.1231 159.006 31.3897 159.406 31.7126C159.804 32.0354 160.125 32.4284 160.366 32.8963C160.607 33.3642 160.728 33.9397 160.728 34.6205C160.728 35.341 160.597 36.0171 160.335 36.6487C160.073 37.2804 159.69 37.8301 159.184 38.298C158.679 38.7659 158.061 39.1332 157.327 39.4022C156.592 39.6712 155.757 39.8046 154.824 39.8046C153.675 39.8046 152.634 39.6104 151.698 39.2244C150.762 38.8384 149.962 38.3144 149.3 37.6547L149.99 36.5973C150.056 36.513 150.135 36.4429 150.231 36.3844C150.325 36.3259 150.43 36.2978 150.545 36.2978C150.652 36.2978 150.772 36.3376 150.907 36.4195C151.043 36.499 151.197 36.6019 151.368 36.7236C151.539 36.8452 151.738 36.9809 151.958 37.126C152.18 37.271 152.43 37.4067 152.713 37.5283C152.996 37.6523 153.319 37.7529 153.68 37.8325C154.04 37.912 154.447 37.9541 154.898 37.9541C155.465 37.9541 155.97 37.8816 156.412 37.7365C156.854 37.5915 157.231 37.3856 157.537 37.1213C157.844 36.8569 158.08 36.5411 158.244 36.1738C158.408 35.8065 158.489 35.3948 158.489 34.9433C158.489 34.445 158.368 34.0379 158.127 33.7198C157.883 33.4016 157.568 33.1349 157.172 32.9197C156.779 32.7045 156.328 32.522 155.82 32.3746C155.312 32.2249 154.795 32.0728 154.269 31.9138C153.745 31.757 153.228 31.5746 152.718 31.3687C152.208 31.1628 151.759 30.8938 151.366 30.5639C150.973 30.2341 150.655 29.8223 150.411 29.3287C150.168 28.8351 150.049 28.2222 150.049 27.4946C150.049 26.9121 150.17 26.3483 150.411 25.8056C150.652 25.2605 151.006 24.7786 151.469 24.3575C151.932 23.9364 152.503 23.5995 153.179 23.3469C153.855 23.0942 154.632 22.9679 155.509 22.9679C156.494 22.9679 157.39 23.1129 158.197 23.4054C159.004 23.6978 159.715 24.1189 160.331 24.671L159.755 25.7237Z" fill="#512D34"/>
<path d="M185.442 39.6244H183.313C183.074 39.6244 182.882 39.5987 182.735 39.5449C182.588 39.491 182.429 39.3811 182.255 39.2103L180.473 37.5306C179.701 38.2278 178.814 38.7822 177.808 39.1916C176.805 39.601 175.698 39.8069 174.493 39.8069C173.838 39.8069 173.195 39.7039 172.568 39.4957C171.941 39.2899 171.377 38.9881 170.877 38.5927C170.376 38.1974 169.974 37.7178 169.672 37.1493C169.37 36.5808 169.216 35.9422 169.216 35.2287C169.216 34.6929 169.312 34.1853 169.506 33.7057C169.698 33.2261 169.967 32.784 170.31 32.3769C170.654 31.9699 171.061 31.6073 171.529 31.2844C171.997 30.9616 172.51 30.6855 173.066 30.4563C172.566 29.8574 172.196 29.2819 171.96 28.7251C171.721 28.1683 171.604 27.5929 171.604 26.994C171.604 26.4348 171.712 25.9085 171.929 25.4196C172.147 24.9283 172.46 24.5025 172.87 24.1376C173.279 23.7726 173.777 23.4872 174.365 23.2743C174.952 23.0638 175.609 22.9585 176.339 22.9585C176.987 22.9585 177.577 23.0568 178.11 23.2509C178.643 23.4451 179.102 23.7048 179.488 24.0276C179.874 24.3504 180.178 24.7224 180.405 25.1482C180.63 25.574 180.761 26.0161 180.793 26.477L179.427 26.7296C179.156 26.7904 178.955 26.6711 178.824 26.374C178.765 26.1752 178.674 25.967 178.548 25.7541C178.421 25.5389 178.255 25.3447 178.056 25.1669C177.855 24.9914 177.614 24.8441 177.331 24.7294C177.048 24.6148 176.718 24.5563 176.341 24.5563C175.932 24.5563 175.56 24.6171 175.228 24.7411C174.896 24.8628 174.613 25.0335 174.379 25.2534C174.145 25.471 173.967 25.7283 173.843 26.0231C173.719 26.3179 173.658 26.6384 173.658 26.9823C173.658 27.2513 173.691 27.5063 173.756 27.7519C173.822 27.9976 173.927 28.2455 174.07 28.4982C174.213 28.7509 174.395 29.0082 174.617 29.2679C174.84 29.5275 175.104 29.8036 175.417 30.096L180.487 34.9128C180.798 34.3912 181.048 33.8484 181.238 33.287C181.427 32.7255 181.549 32.1617 181.607 31.6026C181.624 31.4575 181.673 31.3429 181.755 31.2587C181.837 31.1745 181.951 31.1324 182.099 31.1324H183.439C183.43 32.0143 183.282 32.8776 182.997 33.7244C182.709 34.5713 182.295 35.3667 181.755 36.1106L185.442 39.6244ZM174.075 31.5067C173.204 31.9371 172.552 32.4565 172.112 33.0694C171.672 33.6823 171.454 34.349 171.454 35.0696C171.454 35.5679 171.553 36.0077 171.749 36.3867C171.946 36.7656 172.205 37.0861 172.524 37.3458C172.844 37.6055 173.209 37.8043 173.618 37.9377C174.028 38.071 174.447 38.1389 174.872 38.1389C175.792 38.1389 176.617 37.9821 177.352 37.6663C178.087 37.3528 178.728 36.9294 179.277 36.4007L174.075 31.5067Z" fill="#EC1B26"/>
<path d="M208.485 23.1479V39.6244H206.099V32.1289H196.589V39.6244H194.203V23.1479H196.589V30.496H206.099V23.1479H208.485Z" fill="#512D34"/>
<path d="M229.275 31.3921C229.275 32.6273 229.067 33.7596 228.648 34.7889C228.229 35.8206 227.64 36.7072 226.877 37.4512C226.115 38.1951 225.197 38.7706 224.128 39.1823C223.057 39.5917 221.876 39.7976 220.58 39.7976C219.283 39.7976 218.102 39.5917 217.035 39.1823C215.969 38.7729 215.054 38.1951 214.291 37.4512C213.529 36.7072 212.937 35.8206 212.52 34.7889C212.102 33.7572 211.893 32.625 211.893 31.3921C211.893 30.1592 212.102 29.0246 212.52 27.9953C212.939 26.9636 213.529 26.0746 214.291 25.3284C215.054 24.5821 215.969 23.9996 217.035 23.5855C218.102 23.1714 219.283 22.9656 220.58 22.9656C221.876 22.9656 223.059 23.1714 224.128 23.5855C225.2 23.9996 226.115 24.5798 226.877 25.3284C227.64 26.0746 228.232 26.966 228.648 27.9953C229.067 29.0246 229.275 30.1592 229.275 31.3921ZM226.828 31.3921C226.828 30.3791 226.681 29.4715 226.386 28.6667C226.091 27.8619 225.672 27.1812 225.132 26.6267C224.592 26.07 223.934 25.6442 223.165 25.3448C222.393 25.0453 221.532 24.8956 220.582 24.8956C219.639 24.8956 218.781 25.0453 218.011 25.3448C217.239 25.6442 216.581 26.07 216.036 26.6267C215.491 27.1835 215.07 27.8619 214.775 28.6667C214.481 29.4715 214.333 30.3791 214.333 31.3921C214.333 32.4027 214.481 33.3104 214.775 34.1105C215.07 34.9106 215.491 35.589 216.036 36.1458C216.581 36.7025 217.239 37.126 218.011 37.4231C218.781 37.7179 219.639 37.8652 220.582 37.8652C221.534 37.8652 222.395 37.7179 223.165 37.4231C223.934 37.1283 224.592 36.7025 225.132 36.1458C225.672 35.589 226.091 34.9129 226.386 34.1105C226.681 33.3104 226.828 32.4027 226.828 31.3921Z" fill="#512D34"/>
<path d="M251.027 23.1479V39.6244H248.935V27.518C248.935 27.3565 248.942 27.1834 248.954 27.0009C248.966 26.8161 248.98 26.629 248.996 26.4371L242.944 36.7399C242.755 37.0838 242.469 37.2569 242.083 37.2569H241.739C241.353 37.2569 241.066 37.0838 240.879 36.7399L234.703 26.3927C234.752 26.7998 234.777 27.1741 234.777 27.5203V39.6267H232.686V23.1503H234.445C234.658 23.1503 234.822 23.169 234.936 23.2088C235.051 23.2462 235.161 23.3538 235.269 23.5316L241.358 33.6729C241.456 33.8577 241.552 34.0496 241.648 34.2484C241.742 34.4473 241.831 34.6508 241.913 34.8567C241.994 34.6508 242.081 34.4449 242.17 34.2414C242.261 34.0379 242.359 33.8437 242.465 33.6612L248.444 23.5316C248.542 23.3562 248.652 23.2485 248.769 23.2088C248.889 23.1713 249.055 23.1503 249.268 23.1503H251.027V23.1479Z" fill="#512D34"/>
<path d="M266.404 37.8066L266.392 39.6244H255.53V23.1479H266.392V24.9657H257.916V30.4375H264.78V32.1851H257.916V37.8066H266.404Z" fill="#512D34"/>
<path d="M278.756 25.7237C278.681 25.8383 278.601 25.9249 278.515 25.9834C278.428 26.0419 278.323 26.0699 278.201 26.0699C278.061 26.0699 277.897 26.0044 277.71 25.8734C277.523 25.7424 277.287 25.5997 277.004 25.443C276.721 25.2862 276.379 25.1412 275.981 25.0125C275.584 24.8815 275.102 24.816 274.536 24.816C274.002 24.816 273.532 24.8839 273.127 25.0172C272.72 25.1506 272.381 25.333 272.107 25.5623C271.831 25.7916 271.625 26.0629 271.485 26.3717C271.345 26.6829 271.277 27.0174 271.277 27.3777C271.277 27.8385 271.398 28.2199 271.639 28.5216C271.88 28.8234 272.201 29.0831 272.599 29.2983C272.996 29.5135 273.448 29.6984 273.951 29.8551C274.456 30.0118 274.973 30.1756 275.502 30.344C276.03 30.5125 276.547 30.702 277.053 30.9125C277.558 31.1231 278.007 31.3897 278.407 31.7126C278.805 32.0354 279.125 32.4284 279.366 32.8963C279.607 33.3642 279.729 33.9397 279.729 34.6205C279.729 35.341 279.598 36.0171 279.336 36.6487C279.074 37.2804 278.69 37.8301 278.185 38.298C277.68 38.7659 277.062 39.1332 276.327 39.4022C275.593 39.6712 274.758 39.8046 273.824 39.8046C272.676 39.8046 271.635 39.6104 270.699 39.2244C269.763 38.8384 268.963 38.3144 268.301 37.6547L268.991 36.5973C269.057 36.513 269.136 36.4429 269.232 36.3844C269.326 36.3259 269.431 36.2978 269.546 36.2978C269.653 36.2978 269.773 36.3376 269.908 36.4195C270.044 36.499 270.198 36.6019 270.369 36.7236C270.54 36.8452 270.739 36.9809 270.959 37.126C271.181 37.271 271.431 37.4067 271.714 37.5283C271.997 37.6523 272.32 37.7529 272.68 37.8325C273.041 37.912 273.448 37.9541 273.899 37.9541C274.465 37.9541 274.971 37.8816 275.413 37.7365C275.855 37.5915 276.232 37.3856 276.538 37.1213C276.845 36.8569 277.081 36.5411 277.245 36.1738C277.408 35.8065 277.49 35.3948 277.49 34.9433C277.49 34.445 277.369 34.0379 277.128 33.7198C276.884 33.4016 276.568 33.1349 276.173 32.9197C275.78 32.7045 275.329 32.522 274.821 32.3746C274.313 32.2249 273.796 32.0728 273.27 31.9138C272.746 31.757 272.229 31.5746 271.719 31.3687C271.209 31.1628 270.76 30.8938 270.367 30.5639C269.974 30.2341 269.656 29.8223 269.412 29.3287C269.169 28.8351 269.05 28.2222 269.05 27.4946C269.05 26.9121 269.171 26.3483 269.412 25.8056C269.653 25.2605 270.006 24.7786 270.47 24.3575C270.933 23.9364 271.504 23.5995 272.18 23.3469C272.856 23.0942 273.633 22.9679 274.51 22.9679C275.495 22.9679 276.391 23.1129 277.198 23.4054C278.005 23.6978 278.716 24.1189 279.331 24.671L278.756 25.7237Z" fill="#512D34"/>
<path d="M285.923 39.7976V38.8057H286.882V39.7976H285.923Z" fill="#EC1B26"/>
<path d="M284.624 35.3503C284.449 35.4088 284.311 35.5118 284.21 35.6568C284.112 35.8018 284.06 35.9633 284.06 36.1411C284.06 36.3048 284.091 36.4452 284.152 36.5668C284.213 36.6885 284.29 36.7891 284.388 36.871C284.486 36.9528 284.599 37.0137 284.725 37.0534C284.851 37.0932 284.984 37.1119 285.125 37.1119C285.263 37.1119 285.396 37.0932 285.525 37.0558C285.651 37.0183 285.766 36.9622 285.862 36.8897C285.96 36.8148 286.037 36.7212 286.098 36.6043C286.159 36.4873 286.189 36.3516 286.189 36.1925C286.189 36.0592 286.168 35.9422 286.126 35.844C286.084 35.7457 286.03 35.6591 285.967 35.589C285.902 35.5164 285.829 35.458 285.747 35.4065C285.665 35.3574 285.586 35.3153 285.506 35.2802L285.888 34.5105C286.016 34.5737 286.145 34.6509 286.274 34.7398C286.4 34.8287 286.517 34.9386 286.617 35.0743C286.72 35.2076 286.802 35.3667 286.868 35.5515C286.933 35.7363 286.966 35.9562 286.966 36.2066C286.966 36.492 286.919 36.7516 286.828 36.9809C286.734 37.2102 286.606 37.4043 286.442 37.5634C286.278 37.7225 286.084 37.8441 285.857 37.9307C285.633 38.0173 285.389 38.0594 285.125 38.0594C284.861 38.0594 284.617 38.0173 284.393 37.9307C284.168 37.8441 283.974 37.7202 283.808 37.5564C283.644 37.3926 283.515 37.1938 283.422 36.9552C283.328 36.7189 283.284 36.4475 283.284 36.1411C283.284 35.9141 283.312 35.7129 283.368 35.5398C283.424 35.3667 283.497 35.217 283.588 35.0907C283.679 34.9643 283.784 34.8591 283.908 34.7725C284.032 34.686 284.156 34.6134 284.287 34.5549L284.624 35.3503Z" fill="#EC1B26"/>
<path d="M283.281 32.2975C283.281 31.9957 283.328 31.7266 283.419 31.4857C283.513 31.2471 283.642 31.0459 283.805 30.8821C283.969 30.7184 284.166 30.5944 284.39 30.5078C284.615 30.4213 284.86 30.3792 285.123 30.3792C285.387 30.3792 285.63 30.4236 285.855 30.5078C286.079 30.5944 286.273 30.7184 286.44 30.8821C286.603 31.0459 286.732 31.2471 286.826 31.4857C286.919 31.7243 286.964 31.9957 286.964 32.2975C286.964 32.6039 286.917 32.8753 286.826 33.1116C286.732 33.3478 286.603 33.549 286.44 33.7128C286.276 33.8766 286.082 34.0005 285.855 34.0871C285.63 34.1737 285.387 34.2158 285.123 34.2158C284.858 34.2158 284.615 34.1737 284.39 34.0871C284.166 34.0005 283.972 33.8766 283.805 33.7128C283.642 33.549 283.513 33.3502 283.419 33.1116C283.328 32.8753 283.281 32.6039 283.281 32.2975ZM284.06 32.2975C284.06 32.4612 284.091 32.6016 284.152 32.7232C284.213 32.8449 284.29 32.9455 284.388 33.0274C284.486 33.1092 284.598 33.1701 284.725 33.2098C284.851 33.2496 284.984 33.2683 285.125 33.2683C285.263 33.2683 285.396 33.2496 285.525 33.2098C285.651 33.1701 285.766 33.1092 285.862 33.0274C285.96 32.9455 286.037 32.8449 286.098 32.7232C286.159 32.6016 286.189 32.4612 286.189 32.2975C286.189 32.1337 286.159 31.9933 286.098 31.8717C286.037 31.75 285.96 31.6494 285.862 31.5676C285.764 31.4857 285.651 31.4249 285.525 31.3851C285.399 31.3453 285.265 31.3266 285.125 31.3266C284.987 31.3266 284.853 31.3453 284.725 31.3851C284.598 31.4249 284.486 31.4857 284.388 31.5676C284.29 31.6494 284.213 31.75 284.152 31.8717C284.091 31.9933 284.06 32.136 284.06 32.2975Z" fill="#EC1B26"/>
<path d="M283.366 29.7265V28.8235H283.714C283.581 28.6855 283.473 28.5311 283.398 28.3603C283.321 28.1895 283.284 27.9836 283.284 27.7427C283.284 27.6351 283.293 27.5228 283.312 27.4081C283.331 27.2935 283.361 27.1882 283.403 27.09C283.445 26.9917 283.499 26.9028 283.567 26.8233C283.635 26.7438 283.717 26.6829 283.812 26.6385C283.642 26.5005 283.511 26.3367 283.419 26.1449C283.328 25.9554 283.284 25.7331 283.284 25.4828C283.284 25.0734 283.377 24.7529 283.562 24.519C283.747 24.2874 284.03 24.1704 284.409 24.1704H286.884V25.0734H284.751C284.547 25.0734 284.381 25.1226 284.255 25.2208C284.128 25.3191 284.063 25.4758 284.063 25.6887C284.063 25.8174 284.088 25.9296 284.142 26.0302C284.196 26.1285 284.269 26.2127 284.358 26.2829C284.449 26.3531 284.552 26.4045 284.666 26.442C284.781 26.4794 284.903 26.4981 285.027 26.4981H286.882V27.4011H284.748C284.545 27.4011 284.379 27.4503 284.252 27.5485C284.126 27.6468 284.06 27.8082 284.06 28.0304C284.06 28.1544 284.086 28.2644 284.14 28.3603C284.194 28.4562 284.266 28.5404 284.355 28.6083C284.446 28.6784 284.549 28.7299 284.664 28.7673C284.779 28.8048 284.9 28.8235 285.024 28.8235H286.879V29.7265H283.366Z" fill="#EC1B26"/>
<path d="M134.233 49.9894C133.802 49.9894 133.471 49.876 133.238 49.6521C133.006 49.4282 132.889 49.1025 132.889 48.678V45.5524H132.232C132.174 45.5524 132.127 45.5378 132.087 45.5029C132.046 45.471 132.029 45.4215 132.029 45.3546V44.997L132.924 44.8923L133.145 43.3135C133.157 43.2641 133.18 43.2205 133.218 43.1914C133.256 43.1594 133.305 43.142 133.366 43.142H133.852V44.9011H135.43V45.5524H133.852V48.617C133.852 48.8321 133.907 48.9921 134.017 49.0967C134.128 49.2014 134.273 49.2537 134.448 49.2537C134.549 49.2537 134.637 49.2421 134.709 49.2159C134.782 49.1898 134.846 49.1636 134.901 49.1316C134.957 49.1025 135 49.0735 135.038 49.0473C135.076 49.0211 135.108 49.0095 135.137 49.0095C135.186 49.0095 135.233 49.0386 135.271 49.0938L135.55 49.5212C135.384 49.6666 135.183 49.78 134.951 49.8614C134.718 49.9428 134.48 49.9894 134.233 49.9894Z" fill="#512D34"/>
<path d="M137.387 45.4826C137.62 45.25 137.879 45.0668 138.164 44.9273C138.448 44.7877 138.774 44.7208 139.146 44.7208C139.446 44.7208 139.707 44.7673 139.937 44.8604C140.167 44.9534 140.356 45.0843 140.51 45.2529C140.664 45.4216 140.777 45.628 140.859 45.8664C140.937 46.1048 140.978 46.3694 140.978 46.6573V49.908H140.013V46.6573C140.013 46.2706 139.917 45.9711 139.731 45.7588C139.542 45.5466 139.254 45.439 138.87 45.439C138.585 45.439 138.321 45.503 138.073 45.6309C137.826 45.7588 137.599 45.9333 137.39 46.1514V49.9109H136.425V42.4878H137.39V45.4826H137.387Z" fill="#512D34"/>
<path d="M146.872 49.1926C146.752 49.3263 146.61 49.4426 146.444 49.5444C146.279 49.6433 146.101 49.7247 145.912 49.7887C145.723 49.8526 145.528 49.8991 145.328 49.9311C145.127 49.9631 144.927 49.9806 144.729 49.9806C144.351 49.9806 144.005 49.9195 143.685 49.8003C143.365 49.6811 143.092 49.5066 142.859 49.2769C142.627 49.0472 142.446 48.7623 142.318 48.4221C142.188 48.0819 142.124 47.6923 142.124 47.2532C142.124 46.8985 142.182 46.5641 142.298 46.2559C142.414 45.9477 142.583 45.6773 142.801 45.4505C143.019 45.2237 143.287 45.0463 143.604 44.9155C143.92 44.7847 144.275 44.7207 144.671 44.7207C144.999 44.7207 145.302 44.773 145.581 44.8748C145.86 44.9766 146.101 45.1249 146.305 45.3197C146.508 45.5116 146.668 45.75 146.782 46.0349C146.895 46.3199 146.953 46.6426 146.953 47.0061C146.953 47.1485 146.936 47.2416 146.904 47.2881C146.872 47.3346 146.811 47.3579 146.721 47.3579H143.069C143.08 47.6806 143.127 47.9598 143.211 48.1982C143.295 48.4366 143.415 48.6372 143.563 48.7942C143.711 48.9513 143.894 49.0734 144.101 49.1519C144.307 49.2304 144.543 49.2711 144.801 49.2711C145.043 49.2711 145.249 49.2449 145.424 49.1926C145.598 49.1403 145.749 49.085 145.874 49.024C145.999 48.9629 146.104 48.9077 146.188 48.8553C146.273 48.803 146.345 48.7768 146.406 48.7768C146.485 48.7768 146.546 48.8059 146.59 48.8611L146.872 49.1926ZM146.095 46.7967C146.095 46.5874 146.063 46.3984 145.999 46.2239C145.935 46.0524 145.845 45.9012 145.723 45.7762C145.601 45.6511 145.456 45.5523 145.284 45.4825C145.113 45.4127 144.915 45.3807 144.697 45.3807C144.237 45.3807 143.874 45.5058 143.604 45.7558C143.336 46.0059 143.17 46.3519 143.103 46.7967H146.095Z" fill="#512D34"/>
<path d="M153.199 44.7207C153.597 44.7207 153.957 44.7818 154.277 44.9068C154.597 45.0318 154.87 45.2063 155.097 45.436C155.324 45.6657 155.499 45.9419 155.618 46.2646C155.737 46.5874 155.798 46.9508 155.798 47.3521C155.798 47.7562 155.737 48.1168 155.618 48.4395C155.499 48.7623 155.324 49.0385 155.097 49.2653C154.87 49.4921 154.597 49.6694 154.277 49.7916C153.957 49.9137 153.597 49.9747 153.199 49.9747C152.797 49.9747 152.434 49.9137 152.111 49.7916C151.788 49.6694 151.515 49.4921 151.288 49.2653C151.062 49.0356 150.887 48.7623 150.768 48.4395C150.646 48.1168 150.588 47.7533 150.588 47.3521C150.588 46.9508 150.649 46.5903 150.768 46.2646C150.887 45.939 151.062 45.6628 151.288 45.436C151.515 45.2063 151.788 45.0318 152.111 44.9068C152.434 44.7818 152.797 44.7207 153.199 44.7207ZM153.199 49.2769C153.739 49.2769 154.141 49.1083 154.408 48.771C154.676 48.4337 154.807 47.9627 154.807 47.3579C154.807 46.7502 154.673 46.2763 154.408 45.9361C154.141 45.5959 153.739 45.4272 153.199 45.4272C152.925 45.4272 152.687 45.4709 152.483 45.5581C152.28 45.6453 152.111 45.7703 151.977 45.9361C151.844 46.1018 151.742 46.3024 151.675 46.5438C151.608 46.7851 151.576 47.0555 151.576 47.3579C151.576 47.9627 151.71 48.4337 151.977 48.771C152.245 49.1083 152.652 49.2769 153.199 49.2769Z" fill="#512D34"/>
<path d="M157.918 45.5436C158.037 45.4186 158.162 45.3052 158.296 45.2063C158.43 45.1045 158.569 45.0202 158.72 44.9475C158.869 44.8748 159.029 44.8196 159.194 44.7818C159.363 44.744 159.543 44.7236 159.735 44.7236C160.035 44.7236 160.296 44.7702 160.526 44.8632C160.756 44.9562 160.945 45.0871 161.099 45.2557C161.253 45.4244 161.366 45.6308 161.448 45.8692C161.526 46.1077 161.567 46.3722 161.567 46.6601V49.9108H160.602V46.6601C160.602 46.2734 160.506 45.9739 160.32 45.7616C160.131 45.5494 159.843 45.4418 159.459 45.4418C159.174 45.4418 158.909 45.5058 158.662 45.6337C158.415 45.7616 158.188 45.9361 157.979 46.1542V49.9137H157.014V44.808H157.589C157.726 44.808 157.81 44.869 157.842 44.994L157.918 45.5436Z" fill="#512D34"/>
<path d="M164.024 42.4849V49.908H163.064V42.4849H164.024Z" fill="#512D34"/>
<path d="M166.795 43.2001C166.795 43.2873 166.774 43.3687 166.737 43.4443C166.699 43.5199 166.649 43.5868 166.585 43.6449C166.521 43.7031 166.449 43.7496 166.364 43.7845C166.28 43.8194 166.19 43.8339 166.097 43.8339C166.004 43.8339 165.917 43.8165 165.835 43.7845C165.754 43.7496 165.684 43.706 165.623 43.6449C165.562 43.5868 165.512 43.5199 165.478 43.4443C165.443 43.3687 165.422 43.2873 165.422 43.2001C165.422 43.1128 165.44 43.0285 165.478 42.95C165.515 42.8715 165.562 42.8017 165.623 42.7436C165.684 42.6854 165.754 42.6389 165.835 42.604C165.917 42.5691 166.004 42.5546 166.097 42.5546C166.19 42.5546 166.28 42.572 166.364 42.604C166.449 42.6389 166.521 42.6825 166.585 42.7436C166.649 42.8017 166.699 42.8715 166.737 42.95C166.774 43.0285 166.795 43.1128 166.795 43.2001ZM166.591 44.8021V49.9079H165.632V44.8021H166.591Z" fill="#512D34"/>
<path d="M169.071 45.5436C169.191 45.4186 169.316 45.3052 169.449 45.2063C169.583 45.1045 169.723 45.0202 169.874 44.9475C170.022 44.8748 170.182 44.8196 170.348 44.7818C170.516 44.744 170.697 44.7236 170.889 44.7236C171.188 44.7236 171.45 44.7702 171.679 44.8632C171.909 44.9562 172.098 45.0871 172.252 45.2557C172.406 45.4244 172.52 45.6308 172.601 45.8692C172.68 46.1077 172.72 46.3722 172.72 46.6601V49.9108H171.755V46.6601C171.755 46.2734 171.659 45.9739 171.473 45.7616C171.284 45.5494 170.996 45.4418 170.612 45.4418C170.327 45.4418 170.063 45.5058 169.816 45.6337C169.569 45.7616 169.342 45.9361 169.132 46.1542V49.9137H168.167V44.808H168.743C168.879 44.808 168.964 44.869 168.996 44.994L169.071 45.5436Z" fill="#512D34"/>
<path d="M178.617 49.1926C178.498 49.3263 178.355 49.4426 178.19 49.5444C178.024 49.6433 177.846 49.7247 177.657 49.7887C177.468 49.8526 177.274 49.8991 177.073 49.9311C176.872 49.9631 176.672 49.9806 176.474 49.9806C176.096 49.9806 175.75 49.9195 175.43 49.8003C175.11 49.6811 174.837 49.5066 174.604 49.2769C174.372 49.0472 174.192 48.7623 174.064 48.4221C173.933 48.0819 173.869 47.6923 173.869 47.2532C173.869 46.8985 173.927 46.5641 174.043 46.2559C174.16 45.9477 174.328 45.6773 174.546 45.4505C174.764 45.2237 175.032 45.0463 175.349 44.9155C175.666 44.7847 176.02 44.7207 176.416 44.7207C176.744 44.7207 177.047 44.773 177.326 44.8748C177.605 44.9766 177.846 45.1249 178.05 45.3197C178.254 45.5116 178.413 45.75 178.527 46.0349C178.64 46.3199 178.698 46.6426 178.698 47.0061C178.698 47.1485 178.681 47.2416 178.649 47.2881C178.617 47.3346 178.556 47.3579 178.466 47.3579H174.814C174.825 47.6806 174.872 47.9598 174.956 48.1982C175.041 48.4366 175.16 48.6372 175.308 48.7942C175.456 48.9513 175.64 49.0734 175.846 49.1519C176.052 49.2304 176.288 49.2711 176.547 49.2711C176.788 49.2711 176.995 49.2449 177.169 49.1926C177.343 49.1403 177.495 49.085 177.62 49.024C177.745 48.9629 177.849 48.9077 177.934 48.8553C178.018 48.803 178.091 48.7768 178.152 48.7768C178.23 48.7768 178.291 48.8059 178.335 48.8611L178.617 49.1926ZM177.841 46.7967C177.841 46.5874 177.809 46.3984 177.745 46.2239C177.681 46.0524 177.591 45.9012 177.468 45.7762C177.346 45.6511 177.201 45.5523 177.029 45.4825C176.858 45.4127 176.66 45.3807 176.442 45.3807C175.983 45.3807 175.619 45.5058 175.349 45.7558C175.081 46.0059 174.916 46.3519 174.849 46.7967H177.841Z" fill="#512D34"/>
<path d="M183.557 45.5932C183.787 45.3286 184.054 45.1134 184.357 44.9535C184.659 44.7936 185.005 44.7122 185.392 44.7122C185.709 44.7122 185.994 44.7674 186.249 44.8808C186.505 44.9942 186.723 45.1599 186.901 45.3809C187.078 45.6019 187.218 45.8752 187.317 46.2008C187.412 46.5265 187.462 46.9016 187.462 47.3261C187.462 47.7012 187.407 48.053 187.299 48.3757C187.192 48.7014 187.034 48.9805 186.834 49.216C186.63 49.4545 186.383 49.6405 186.09 49.7743C185.796 49.911 185.467 49.9778 185.101 49.9778C184.767 49.9778 184.479 49.9255 184.24 49.8179C184.002 49.7132 183.79 49.5649 183.606 49.3759V51.6352H182.641V44.7994H183.217C183.353 44.7994 183.438 44.8604 183.47 44.9855L183.557 45.5932ZM183.606 48.6781C183.784 48.8991 183.976 49.0561 184.182 49.1463C184.391 49.2364 184.624 49.2829 184.883 49.2829C185.395 49.2829 185.784 49.1143 186.058 48.7741C186.331 48.4339 186.468 47.9512 186.468 47.3232C186.468 46.9917 186.436 46.7039 186.372 46.4654C186.308 46.227 186.217 46.0322 186.098 45.8781C185.979 45.724 185.834 45.6135 185.662 45.5437C185.491 45.4739 185.293 45.4391 185.075 45.4391C184.761 45.4391 184.487 45.5059 184.252 45.6397C184.016 45.7734 183.798 45.9653 183.601 46.2096V48.6781H183.606Z" fill="#512D34"/>
<path d="M189.596 45.8258C189.768 45.4769 189.98 45.2035 190.233 45.0058C190.486 44.8081 190.791 44.7122 191.155 44.7122C191.271 44.7122 191.381 44.7238 191.486 44.747C191.594 44.7703 191.687 44.8081 191.768 44.8575L191.698 45.5292C191.678 45.6135 191.623 45.6542 191.536 45.6542C191.486 45.6542 191.41 45.6455 191.315 45.6251C191.219 45.6048 191.108 45.5961 190.986 45.5961C190.814 45.5961 190.66 45.6193 190.524 45.6659C190.39 45.7124 190.268 45.7822 190.163 45.8752C190.056 45.9682 189.963 46.0816 189.878 46.2183C189.794 46.355 189.718 46.5091 189.648 46.6835V49.908H188.683V44.8023H189.233C189.337 44.8023 189.41 44.8197 189.448 44.8575C189.489 44.8953 189.515 44.9593 189.529 45.0494L189.596 45.8258Z" fill="#512D34"/>
<path d="M194.693 44.7207C195.092 44.7207 195.452 44.7818 195.772 44.9068C196.092 45.0318 196.365 45.2063 196.592 45.436C196.819 45.6657 196.993 45.9419 197.112 46.2646C197.232 46.5874 197.293 46.9508 197.293 47.3521C197.293 47.7562 197.232 48.1168 197.112 48.4395C196.993 48.7623 196.819 49.0385 196.592 49.2653C196.365 49.4921 196.092 49.6694 195.772 49.7916C195.452 49.9137 195.092 49.9747 194.693 49.9747C194.292 49.9747 193.928 49.9137 193.606 49.7916C193.283 49.6694 193.01 49.4921 192.783 49.2653C192.556 49.0356 192.382 48.7623 192.262 48.4395C192.14 48.1168 192.082 47.7533 192.082 47.3521C192.082 46.9508 192.143 46.5903 192.262 46.2646C192.382 45.939 192.556 45.6628 192.783 45.436C193.01 45.2063 193.283 45.0318 193.606 44.9068C193.928 44.7818 194.292 44.7207 194.693 44.7207ZM194.693 49.2769C195.234 49.2769 195.635 49.1083 195.903 48.771C196.17 48.4337 196.301 47.9627 196.301 47.3579C196.301 46.7502 196.167 46.2763 195.903 45.9361C195.635 45.5959 195.234 45.4272 194.693 45.4272C194.42 45.4272 194.181 45.4709 193.978 45.5581C193.774 45.6453 193.606 45.7703 193.472 45.9361C193.338 46.1018 193.236 46.3024 193.17 46.5438C193.103 46.7851 193.071 47.0555 193.071 47.3579C193.071 47.9627 193.204 48.4337 193.472 48.771C193.739 49.1083 194.147 49.2769 194.693 49.2769Z" fill="#512D34"/>
<path d="M199.424 45.5932C199.653 45.3286 199.921 45.1134 200.223 44.9535C200.526 44.7936 200.872 44.7122 201.258 44.7122C201.575 44.7122 201.86 44.7674 202.116 44.8808C202.372 44.9942 202.59 45.1599 202.767 45.3809C202.945 45.6019 203.084 45.8752 203.183 46.2008C203.279 46.5265 203.329 46.9016 203.329 47.3261C203.329 47.7012 203.273 48.053 203.166 48.3757C203.058 48.7014 202.901 48.9805 202.701 49.216C202.497 49.4545 202.25 49.6405 201.956 49.7743C201.663 49.911 201.334 49.9778 200.968 49.9778C200.633 49.9778 200.345 49.9255 200.107 49.8179C199.869 49.7132 199.656 49.5649 199.473 49.3759V51.6352H198.508V44.7994H199.084C199.22 44.7994 199.304 44.8604 199.336 44.9855L199.424 45.5932ZM199.47 48.6781C199.648 48.8991 199.839 49.0561 200.046 49.1463C200.255 49.2364 200.488 49.2829 200.747 49.2829C201.258 49.2829 201.648 49.1143 201.921 48.7741C202.195 48.4339 202.331 47.9512 202.331 47.3232C202.331 46.9917 202.299 46.7039 202.235 46.4654C202.171 46.227 202.081 46.0322 201.962 45.8781C201.843 45.724 201.697 45.6135 201.526 45.5437C201.354 45.4739 201.157 45.4391 200.939 45.4391C200.625 45.4391 200.351 45.5059 200.116 45.6397C199.88 45.7734 199.662 45.9653 199.464 46.2096V48.6781H199.47Z" fill="#512D34"/>
<path d="M208.984 49.1926C208.865 49.3263 208.722 49.4426 208.557 49.5444C208.391 49.6433 208.213 49.7247 208.024 49.7887C207.836 49.8526 207.641 49.8991 207.44 49.9311C207.239 49.9631 207.039 49.9806 206.841 49.9806C206.463 49.9806 206.117 49.9195 205.797 49.8003C205.477 49.6811 205.204 49.5066 204.972 49.2769C204.739 49.0472 204.559 48.7623 204.431 48.4221C204.3 48.0819 204.236 47.6923 204.236 47.2532C204.236 46.8985 204.294 46.5641 204.41 46.2559C204.527 45.9477 204.695 45.6773 204.913 45.4505C205.131 45.2237 205.399 45.0463 205.716 44.9155C206.033 44.7847 206.388 44.7207 206.783 44.7207C207.112 44.7207 207.414 44.773 207.693 44.8748C207.972 44.9766 208.214 45.1249 208.417 45.3197C208.621 45.5116 208.78 45.75 208.894 46.0349C209.007 46.3199 209.065 46.6426 209.065 47.0061C209.065 47.1485 209.048 47.2416 209.016 47.2881C208.984 47.3346 208.923 47.3579 208.833 47.3579H205.187C205.198 47.6806 205.245 47.9598 205.329 48.1982C205.413 48.4366 205.533 48.6372 205.681 48.7942C205.829 48.9513 206.012 49.0734 206.219 49.1519C206.425 49.2304 206.661 49.2711 206.92 49.2711C207.161 49.2711 207.367 49.2449 207.542 49.1926C207.716 49.1403 207.867 49.085 207.993 49.024C208.118 48.9629 208.222 48.9077 208.307 48.8553C208.391 48.803 208.464 48.7768 208.525 48.7768C208.603 48.7768 208.664 48.8059 208.708 48.8611L208.984 49.1926ZM208.208 46.7967C208.208 46.5874 208.176 46.3984 208.112 46.2239C208.048 46.0524 207.958 45.9012 207.836 45.7762C207.713 45.6511 207.568 45.5523 207.396 45.4825C207.225 45.4127 207.027 45.3807 206.809 45.3807C206.35 45.3807 205.986 45.5058 205.716 45.7558C205.448 46.0059 205.283 46.3519 205.216 46.7967H208.208Z" fill="#512D34"/>
<path d="M211.159 45.8258C211.33 45.4769 211.543 45.2035 211.796 45.0058C212.049 44.8081 212.354 44.7122 212.717 44.7122C212.834 44.7122 212.944 44.7238 213.049 44.747C213.156 44.7703 213.249 44.8081 213.331 44.8575L213.261 45.5292C213.241 45.6135 213.185 45.6542 213.098 45.6542C213.049 45.6542 212.973 45.6455 212.877 45.6251C212.781 45.6048 212.671 45.5961 212.549 45.5961C212.377 45.5961 212.223 45.6193 212.086 45.6659C211.953 45.7124 211.831 45.7822 211.726 45.8752C211.618 45.9682 211.525 46.0816 211.441 46.2183C211.357 46.355 211.281 46.5091 211.211 46.6835V49.908H210.246V44.8023H210.795C210.9 44.8023 210.973 44.8197 211.011 44.8575C211.051 44.8953 211.077 44.9593 211.092 45.0494L211.159 45.8258Z" fill="#512D34"/>
<path d="M215.852 49.9894C215.421 49.9894 215.09 49.876 214.857 49.6521C214.625 49.4282 214.508 49.1025 214.508 48.678V45.5524H213.851C213.793 45.5524 213.747 45.5378 213.706 45.5029C213.665 45.471 213.648 45.4215 213.648 45.3546V44.997L214.543 44.8923L214.764 43.3135C214.776 43.2641 214.799 43.2205 214.837 43.1914C214.875 43.1594 214.924 43.142 214.985 43.142H215.471V44.9011H217.05V45.5524H215.471V48.617C215.471 48.8321 215.526 48.9921 215.637 49.0967C215.747 49.2014 215.892 49.2537 216.067 49.2537C216.169 49.2537 216.256 49.2421 216.329 49.2159C216.401 49.1898 216.465 49.1636 216.521 49.1316C216.576 49.1025 216.619 49.0735 216.657 49.0473C216.695 49.0211 216.727 49.0095 216.756 49.0095C216.805 49.0095 216.852 49.0386 216.89 49.0938L217.169 49.5212C217.003 49.6666 216.803 49.78 216.57 49.8614C216.337 49.9428 216.099 49.9894 215.852 49.9894Z" fill="#512D34"/>
<path d="M222.754 44.8022L219.707 51.4141C219.675 51.481 219.635 51.5362 219.585 51.574C219.536 51.6118 219.463 51.6351 219.361 51.6351H218.649L219.646 49.6085L217.393 44.7993H218.224C218.306 44.7993 218.373 44.8197 218.422 44.8575C218.472 44.8953 218.504 44.9389 218.521 44.9854L219.983 48.2012C220.042 48.3437 220.088 48.4891 220.129 48.6461C220.178 48.4891 220.234 48.3379 220.292 48.1983L221.711 44.9883C221.731 44.936 221.769 44.8895 221.821 44.8546C221.873 44.8197 221.932 44.8022 221.996 44.8022H222.754Z" fill="#512D34"/>
<path d="M229.279 45.6423C229.236 45.715 229.169 45.7528 229.079 45.7528C229.023 45.7528 228.962 45.7354 228.895 45.6976C228.826 45.6598 228.744 45.6191 228.645 45.5755C228.546 45.5289 228.427 45.4882 228.291 45.4504C228.154 45.4126 227.991 45.3923 227.805 45.3923C227.642 45.3923 227.497 45.4126 227.369 45.4504C227.238 45.4882 227.128 45.5435 227.037 45.6104C226.947 45.6772 226.875 45.7557 226.828 45.8459C226.779 45.936 226.755 46.032 226.755 46.1366C226.755 46.2675 226.796 46.378 226.878 46.4652C226.959 46.5524 227.067 46.628 227.197 46.692C227.331 46.7559 227.482 46.8112 227.651 46.8606C227.82 46.91 227.994 46.9624 228.171 47.0176C228.349 47.0729 228.523 47.1339 228.692 47.2008C228.861 47.2677 229.012 47.352 229.145 47.4538C229.279 47.5555 229.387 47.6777 229.465 47.823C229.544 47.9684 229.587 48.1458 229.587 48.3493C229.587 48.5848 229.541 48.8029 229.454 49.0035C229.364 49.2041 229.23 49.3757 229.055 49.524C228.878 49.6694 228.663 49.7857 228.407 49.87C228.151 49.9543 227.857 49.995 227.523 49.995C227.142 49.995 226.796 49.9369 226.488 49.8206C226.18 49.7043 225.915 49.556 225.7 49.3757L225.927 49.0326C225.956 48.989 225.991 48.9541 226.029 48.9308C226.069 48.9076 226.119 48.8959 226.18 48.8959C226.244 48.8959 226.313 48.9192 226.386 48.9657C226.459 49.0123 226.546 49.0646 226.648 49.1227C226.75 49.1809 226.875 49.2332 227.023 49.2797C227.171 49.3263 227.354 49.3495 227.572 49.3495C227.759 49.3495 227.924 49.3263 228.064 49.2827C228.203 49.239 228.32 49.1751 228.416 49.0995C228.509 49.021 228.578 48.9337 228.622 48.832C228.666 48.7302 228.689 48.6226 228.689 48.5092C228.689 48.3668 228.648 48.2505 228.567 48.1603C228.485 48.0673 228.378 47.9888 228.247 47.9219C228.113 47.8579 227.962 47.7998 227.791 47.7503C227.619 47.7009 227.444 47.6515 227.267 47.5962C227.09 47.541 226.915 47.4799 226.744 47.4131C226.572 47.3433 226.421 47.2561 226.287 47.1543C226.154 47.0496 226.046 46.9217 225.967 46.7676C225.886 46.6135 225.845 46.4303 225.845 46.2093C225.845 46.0145 225.889 45.8284 225.976 45.6482C226.063 45.4679 226.188 45.3109 226.354 45.1742C226.52 45.0376 226.723 44.93 226.965 44.8486C227.206 44.7672 227.479 44.7264 227.791 44.7264C228.151 44.7264 228.474 44.7788 228.759 44.8864C229.044 44.991 229.291 45.1364 229.5 45.3225L229.279 45.6423Z" fill="#512D34"/>
<path d="M235.26 44.8022V49.908H234.687C234.551 49.908 234.463 49.8469 234.428 49.7219L234.353 49.1724C234.114 49.4166 233.85 49.6143 233.553 49.7655C233.26 49.9138 232.919 49.9894 232.539 49.9894C232.239 49.9894 231.977 49.9429 231.748 49.8498C231.518 49.7568 231.329 49.626 231.175 49.4602C231.021 49.2916 230.904 49.088 230.826 48.8496C230.747 48.6112 230.71 48.3466 230.71 48.0588V44.8022H231.669V48.0588C231.669 48.4455 231.762 48.745 231.951 48.9572C232.14 49.1695 232.428 49.2741 232.818 49.2741C233.103 49.2741 233.367 49.2102 233.614 49.0851C233.861 48.9601 234.088 48.7857 234.298 48.5647V44.8051H235.26V44.8022Z" fill="#512D34"/>
<path d="M237.697 45.5932C237.926 45.3286 238.194 45.1134 238.496 44.9535C238.799 44.7936 239.145 44.7122 239.531 44.7122C239.848 44.7122 240.133 44.7674 240.389 44.8808C240.645 44.9942 240.863 45.1599 241.04 45.3809C241.218 45.6019 241.357 45.8752 241.456 46.2008C241.552 46.5265 241.601 46.9016 241.601 47.3261C241.601 47.7012 241.546 48.053 241.439 48.3757C241.331 48.7014 241.174 48.9805 240.973 49.216C240.77 49.4545 240.523 49.6405 240.229 49.7743C239.935 49.911 239.607 49.9778 239.241 49.9778C238.906 49.9778 238.618 49.9255 238.38 49.8179C238.141 49.7132 237.929 49.5649 237.746 49.3759V51.6352H236.781V44.7994H237.356C237.493 44.7994 237.577 44.8604 237.609 44.9855L237.697 45.5932ZM237.746 48.6781C237.923 48.8991 238.115 49.0561 238.322 49.1463C238.531 49.2364 238.764 49.2829 239.022 49.2829C239.534 49.2829 239.924 49.1143 240.197 48.7741C240.47 48.4339 240.607 47.9512 240.607 47.3232C240.607 46.9917 240.575 46.7039 240.511 46.4654C240.447 46.227 240.357 46.0322 240.238 45.8781C240.119 45.724 239.973 45.6135 239.802 45.5437C239.63 45.4739 239.432 45.4391 239.214 45.4391C238.9 45.4391 238.627 45.5059 238.392 45.6397C238.156 45.7734 237.938 45.9653 237.74 46.2096V48.6781H237.746Z" fill="#512D34"/>
<path d="M247.26 49.1926C247.141 49.3263 246.998 49.4426 246.832 49.5444C246.667 49.6433 246.489 49.7247 246.3 49.7887C246.111 49.8526 245.916 49.8991 245.716 49.9311C245.515 49.9631 245.315 49.9806 245.117 49.9806C244.739 49.9806 244.393 49.9195 244.073 49.8003C243.753 49.6811 243.48 49.5066 243.247 49.2769C243.015 49.0472 242.834 48.7623 242.706 48.4221C242.576 48.0819 242.512 47.6923 242.512 47.2532C242.512 46.8985 242.57 46.5641 242.686 46.2559C242.802 45.9477 242.971 45.6773 243.189 45.4505C243.407 45.2237 243.675 45.0463 243.992 44.9155C244.309 44.7847 244.663 44.7207 245.059 44.7207C245.387 44.7207 245.69 44.773 245.969 44.8748C246.248 44.9766 246.489 45.1249 246.693 45.3197C246.896 45.5116 247.056 45.75 247.17 46.0349C247.283 46.3199 247.341 46.6426 247.341 47.0061C247.341 47.1485 247.324 47.2416 247.292 47.2881C247.26 47.3346 247.199 47.3579 247.109 47.3579H243.457C243.468 47.6806 243.515 47.9598 243.599 48.1982C243.683 48.4366 243.803 48.6372 243.951 48.7942C244.099 48.9513 244.282 49.0734 244.489 49.1519C244.695 49.2304 244.931 49.2711 245.19 49.2711C245.431 49.2711 245.637 49.2449 245.812 49.1926C245.986 49.1403 246.137 49.085 246.262 49.024C246.387 48.9629 246.492 48.9077 246.576 48.8553C246.661 48.803 246.733 48.7768 246.794 48.7768C246.873 48.7768 246.934 48.8059 246.978 48.8611L247.26 49.1926ZM246.483 46.7967C246.483 46.5874 246.451 46.3984 246.387 46.2239C246.323 46.0524 246.233 45.9012 246.111 45.7762C245.989 45.6511 245.844 45.5523 245.672 45.4825C245.501 45.4127 245.303 45.3807 245.085 45.3807C244.625 45.3807 244.262 45.5058 243.992 45.7558C243.724 46.0059 243.558 46.3519 243.491 46.7967H246.483Z" fill="#512D34"/>
<path d="M249.435 45.8258C249.606 45.4769 249.818 45.2035 250.071 45.0058C250.324 44.8081 250.63 44.7122 250.993 44.7122C251.109 44.7122 251.22 44.7238 251.325 44.747C251.432 44.7703 251.525 44.8081 251.607 44.8575L251.537 45.5292C251.516 45.6135 251.461 45.6542 251.374 45.6542C251.325 45.6542 251.249 45.6455 251.153 45.6251C251.057 45.6048 250.947 45.5961 250.824 45.5961C250.653 45.5961 250.499 45.6193 250.362 45.6659C250.228 45.7124 250.106 45.7822 250.002 45.8752C249.894 45.9682 249.801 46.0816 249.717 46.2183C249.632 46.355 249.557 46.5091 249.487 46.6835V49.908H248.522V44.8023H249.071C249.176 44.8023 249.249 44.8197 249.286 44.8575C249.327 44.8953 249.353 44.9593 249.368 45.0494L249.435 45.8258Z" fill="#512D34"/>
<path d="M254.982 49.9079V44.8021H255.558C255.695 44.8021 255.779 44.8632 255.811 44.9882L255.881 45.5116C256.081 45.279 256.308 45.09 256.561 44.9417C256.814 44.7934 257.105 44.7207 257.433 44.7207C257.8 44.7207 258.096 44.8167 258.326 45.0086C258.556 45.2005 258.719 45.4592 258.82 45.7849C258.899 45.5988 259.001 45.4418 259.126 45.3051C259.251 45.1714 259.39 45.0609 259.544 44.9737C259.699 44.8864 259.864 44.8225 260.039 44.7818C260.213 44.7411 260.39 44.7207 260.571 44.7207C260.859 44.7207 261.114 44.7643 261.338 44.8486C261.562 44.933 261.754 45.0609 261.911 45.2237C262.068 45.3894 262.187 45.5901 262.269 45.8314C262.353 46.0727 262.394 46.3461 262.394 46.6543V49.905H261.429V46.6543C261.429 46.253 261.335 45.9506 261.149 45.7442C260.963 45.5377 260.693 45.4331 260.341 45.4331C260.184 45.4331 260.033 45.4592 259.89 45.5116C259.748 45.5639 259.623 45.6395 259.515 45.7413C259.408 45.843 259.32 45.9681 259.259 46.1222C259.195 46.2763 259.163 46.4536 259.163 46.6543V49.905H258.198V46.6543C258.198 46.2443 258.111 45.939 257.934 45.7355C257.756 45.5348 257.5 45.4331 257.163 45.4331C256.925 45.4331 256.707 45.4941 256.506 45.6133C256.305 45.7326 256.119 45.8954 255.951 46.0989V49.905H254.982V49.9079Z" fill="#512D34"/>
<path d="M263.714 45.5234C264.016 45.2501 264.342 45.0465 264.691 44.9128C265.04 44.779 265.426 44.7122 265.851 44.7122C266.156 44.7122 266.427 44.7587 266.665 44.8546C266.903 44.9477 267.101 45.0785 267.264 45.2472C267.427 45.4158 267.549 45.6193 267.63 45.8578C267.712 46.0962 267.755 46.3579 267.755 46.6428V49.908H267.331C267.238 49.908 267.165 49.8935 267.116 49.8644C267.066 49.8354 267.026 49.7801 266.996 49.6958L266.889 49.2131C266.744 49.3381 266.604 49.4486 266.467 49.5446C266.331 49.6405 266.188 49.722 266.037 49.7859C265.886 49.8528 265.726 49.9022 265.554 49.9371C265.383 49.972 265.194 49.9895 264.984 49.9895C264.772 49.9895 264.572 49.9604 264.385 49.9051C264.199 49.8499 264.037 49.7656 263.897 49.6551C263.757 49.5446 263.65 49.405 263.568 49.2335C263.487 49.0648 263.446 48.8642 263.446 48.6316C263.446 48.431 263.504 48.2362 263.624 48.0501C263.743 47.864 263.935 47.6983 264.202 47.5529C264.47 47.4075 264.816 47.2912 265.243 47.1982C265.671 47.1051 266.197 47.0528 266.819 47.0382V46.6399C266.819 46.2445 266.726 45.945 266.543 45.7414C266.36 45.5379 266.092 45.4361 265.74 45.4361C265.502 45.4361 265.304 45.4623 265.144 45.5205C264.984 45.5757 264.845 45.6368 264.729 45.7066C264.612 45.7763 264.51 45.8374 264.426 45.8926C264.342 45.9479 264.258 45.977 264.176 45.977C264.112 45.977 264.054 45.9624 264.007 45.9304C263.961 45.8985 263.92 45.8578 263.888 45.8112L263.714 45.5234ZM266.816 47.6081C266.374 47.6227 265.996 47.6546 265.685 47.707C265.374 47.7593 265.121 47.8262 264.923 47.9105C264.726 47.9948 264.586 48.0937 264.499 48.2071C264.412 48.3205 264.365 48.4484 264.365 48.5909C264.365 48.7246 264.388 48.8409 264.435 48.9398C264.481 49.0358 264.545 49.1172 264.627 49.1782C264.708 49.2393 264.804 49.2858 264.912 49.3149C265.022 49.344 265.139 49.3585 265.264 49.3585C265.432 49.3585 265.586 49.344 265.729 49.312C265.868 49.28 266.002 49.2335 266.124 49.1724C266.246 49.1114 266.366 49.0387 266.479 48.9543C266.592 48.87 266.703 48.7741 266.81 48.6665V47.6081H266.816Z" fill="#512D34"/>
<path d="M270.128 45.8258C270.3 45.4769 270.512 45.2035 270.765 45.0058C271.018 44.8081 271.323 44.7122 271.687 44.7122C271.803 44.7122 271.913 44.7238 272.018 44.747C272.126 44.7703 272.219 44.8081 272.3 44.8575L272.23 45.5292C272.21 45.6135 272.155 45.6542 272.067 45.6542C272.018 45.6542 271.942 45.6455 271.846 45.6251C271.75 45.6048 271.64 45.5961 271.518 45.5961C271.346 45.5961 271.192 45.6193 271.056 45.6659C270.922 45.7124 270.8 45.7822 270.695 45.8752C270.587 45.9682 270.494 46.0816 270.41 46.2183C270.326 46.355 270.25 46.5091 270.18 46.6835V49.908H269.215V44.8023H269.765C269.869 44.8023 269.942 44.8197 269.98 44.8575C270.02 44.8953 270.047 44.9593 270.061 45.0494L270.128 45.8258Z" fill="#512D34"/>
<path d="M274.106 42.4849V46.855H274.353C274.425 46.855 274.484 46.8463 274.533 46.8259C274.583 46.8056 274.632 46.7707 274.687 46.7125L276.414 44.9825C276.464 44.9243 276.519 44.8807 276.574 44.8487C276.629 44.8168 276.705 44.7993 276.798 44.7993H277.667L275.655 46.7997C275.559 46.9131 275.455 47.0033 275.341 47.0672C275.405 47.108 275.464 47.1545 275.516 47.2068C275.568 47.2591 275.618 47.3173 275.664 47.3871L277.801 49.908H276.943C276.859 49.908 276.789 49.8963 276.731 49.8702C276.673 49.844 276.621 49.7975 276.577 49.7306L274.78 47.64C274.725 47.5703 274.673 47.5237 274.62 47.5005C274.568 47.4772 274.487 47.4685 274.379 47.4685H274.103V49.908H273.137V42.4849H274.106Z" fill="#512D34"/>
<path d="M282.747 49.1926C282.628 49.3263 282.485 49.4426 282.32 49.5444C282.154 49.6433 281.977 49.7247 281.788 49.7887C281.599 49.8526 281.404 49.8991 281.203 49.9311C281.002 49.9631 280.802 49.9806 280.604 49.9806C280.226 49.9806 279.88 49.9195 279.56 49.8003C279.24 49.6811 278.967 49.5066 278.735 49.2769C278.502 49.0472 278.322 48.7623 278.194 48.4221C278.063 48.0819 277.999 47.6923 277.999 47.2532C277.999 46.8985 278.057 46.5641 278.173 46.2559C278.29 45.9477 278.458 45.6773 278.676 45.4505C278.894 45.2237 279.162 45.0463 279.479 44.9155C279.796 44.7847 280.151 44.7207 280.546 44.7207C280.875 44.7207 281.177 44.773 281.456 44.8748C281.735 44.9766 281.977 45.1249 282.18 45.3197C282.384 45.5116 282.543 45.75 282.657 46.0349C282.77 46.3199 282.828 46.6426 282.828 47.0061C282.828 47.1485 282.811 47.2416 282.779 47.2881C282.747 47.3346 282.686 47.3579 282.596 47.3579H278.944C278.956 47.6806 279.002 47.9598 279.086 48.1982C279.171 48.4366 279.29 48.6372 279.438 48.7942C279.586 48.9513 279.77 49.0734 279.976 49.1519C280.182 49.2304 280.418 49.2711 280.677 49.2711C280.918 49.2711 281.125 49.2449 281.299 49.1926C281.473 49.1403 281.625 49.085 281.75 49.024C281.875 48.9629 281.979 48.9077 282.064 48.8553C282.148 48.803 282.221 48.7768 282.282 48.7768C282.36 48.7768 282.421 48.8059 282.465 48.8611L282.747 49.1926ZM281.971 46.7967C281.971 46.5874 281.939 46.3984 281.875 46.2239C281.811 46.0524 281.721 45.9012 281.599 45.7762C281.476 45.6511 281.331 45.5523 281.159 45.4825C280.988 45.4127 280.79 45.3807 280.572 45.3807C280.113 45.3807 279.749 45.5058 279.479 45.7558C279.211 46.0059 279.046 46.3519 278.979 46.7967H281.971Z" fill="#512D34"/>
<path d="M285.649 49.9894C285.219 49.9894 284.887 49.876 284.654 49.6521C284.422 49.4282 284.306 49.1025 284.306 48.678V45.5524H283.648C283.59 45.5524 283.544 45.5378 283.503 45.5029C283.462 45.471 283.445 45.4215 283.445 45.3546V44.997L284.34 44.8923L284.561 43.3135C284.573 43.2641 284.596 43.2205 284.634 43.1914C284.672 43.1594 284.721 43.142 284.782 43.142H285.268V44.9011H286.847V45.5524H285.268V48.617C285.268 48.8321 285.323 48.9921 285.434 49.0967C285.544 49.2014 285.69 49.2537 285.864 49.2537C285.966 49.2537 286.053 49.2421 286.126 49.2159C286.198 49.1898 286.262 49.1636 286.318 49.1316C286.373 49.1025 286.416 49.0735 286.454 49.0473C286.492 49.0211 286.524 49.0095 286.553 49.0095C286.603 49.0095 286.649 49.0386 286.687 49.0938L286.966 49.5212C286.8 49.6666 286.6 49.78 286.367 49.8614C286.134 49.9428 285.896 49.9894 285.649 49.9894Z" fill="#512D34"/>
<path d="M287.856 23.4497C288.832 23.4497 289.622 22.659 289.622 21.6835C289.622 20.708 288.832 19.9172 287.856 19.9172C286.881 19.9172 286.09 20.708 286.09 21.6835C286.09 22.659 286.881 23.4497 287.856 23.4497Z" stroke="#512D34" stroke-width="0.25" stroke-miterlimit="10"/>
<path d="M287.454 21.0192V21.1946H287.082V22.3292H286.852V21.1946H286.478V21.0192H287.454Z" fill="#512D34"/>
<path d="M289.162 21.0192V22.3269H288.932V21.4309L288.504 22.3269H288.345L287.917 21.4309V22.3269H287.688V21.0192H287.936L288.427 22.0462L288.916 21.0192H289.162Z" fill="#512D34"/>
</svg>
