<svg xmlns="http://www.w3.org/2000/svg" width="176" height="179" viewBox="0 0 176 179">
  <g id="Group_3760" data-name="Group 3760" transform="translate(-7339 -2844)">
    <g id="Group_3708" data-name="Group 3708" transform="translate(227)">
      <g id="Group_3706" data-name="Group 3706" transform="translate(237)">
        <g id="Group_3703" data-name="Group 3703" transform="translate(279)">
          <g id="Group_3697" data-name="Group 3697" transform="translate(256)">
            <g id="Group_3694" data-name="Group 3694" transform="translate(378)">
              <g id="Group_3690" data-name="Group 3690" transform="translate(1011)">
                <path id="Rectangle_1645" data-name="Rectangle 1645" d="M86,0h90a0,0,0,0,1,0,0V179a0,0,0,0,1,0,0H0a0,0,0,0,1,0,0V86A86,86,0,0,1,86,0Z" transform="translate(4951 2844)" fill="#fcf4ee" opacity="0.98"/>
              </g>
            </g>
          </g>
        </g>
      </g>
    </g>
    <g id="people-carrier" transform="translate(7382.174 2890.682)">
      <g id="Group_3709" data-name="Group 3709" transform="translate(0.521 0.492)">
        <circle id="Ellipse_98" data-name="Ellipse 98" cx="49.811" cy="49.811" r="49.811" fill="#f7c845"/>
        <path id="Path_2598" data-name="Path 2598" d="M47.14,404.06a50.34,50.34,0,0,0,82.129,0Z" transform="translate(-38.393 -325.138)" fill="#fbdb58"/>
      </g>
      <g id="Group_3718" data-name="Group 3718" transform="translate(0 28.699)">
        <g id="Group_3713" data-name="Group 3713">
          <g id="Group_3710" data-name="Group 3710" transform="translate(1.83 35.099)">
            <path id="Path_2599" data-name="Path 2599" d="M46.253,324.64v2.487a2.105,2.105,0,0,1-2.1,2.106H10.83q-.366-.944-.692-1.907c-.3-.883-.576-1.779-.828-2.684v0Z" transform="translate(-9.31 -324.64)" fill="#c2aacf"/>
            <path id="Path_2600" data-name="Path 2600" d="M46.253,324.64v.576a2.109,2.109,0,0,1-2.1,2.11H10.138c-.3-.883-.576-1.779-.828-2.684v0Z" transform="translate(-9.31 -324.64)" fill="#decee5"/>
          </g>
          <path id="Path_2601" data-name="Path 2601" d="M38.774,148.654v32.567H1.83a50.521,50.521,0,0,1,3.032-35.1H36.238A2.534,2.534,0,0,1,38.774,148.654Z" transform="translate(0 -146.12)" fill="#dd5e26"/>
          <path id="Path_2602" data-name="Path 2602" d="M34.789,159.726a1.641,1.641,0,0,1-1.646,1.642H13.16q.557-1.672,1.229-3.287H33.144A1.645,1.645,0,0,1,34.789,159.726Z" transform="translate(-10.573 -155.729)" fill="#ea792e"/>
          <path id="Path_2603" data-name="Path 2603" d="M140.409,161.367h-5.122a1.644,1.644,0,1,1,0-3.289h5.122a1.644,1.644,0,1,1,0,3.289Z" transform="translate(-107.367 -155.727)" fill="#ea792e"/>
          <g id="Group_3712" data-name="Group 3712" transform="translate(4.528 14.891)">
            <g id="Group_3711" data-name="Group 3711">
              <path id="Path_2604" data-name="Path 2604" d="M30.175,222.252a.683.683,0,0,1,.181.5v6.322a.635.635,0,0,1-.171.47.613.613,0,0,1-1.047-.47v-4.4l-1.815,3.439c-.157.278-.32.455-.63.459a.686.686,0,0,1-.63-.459l-1.826-3.385v4.346a.616.616,0,0,1-1.047.47.66.66,0,0,1-.16-.47v-6.322a.668.668,0,0,1,1.3-.224l2.371,4.517,2.36-4.517a.681.681,0,0,1,1.111-.272Z" transform="translate(-23.03 -222.023)" fill="#fff"/>
              <path id="Path_2605" data-name="Path 2605" d="M69.037,229.108c-2.251-1.253-2.267-5.531-.005-6.781a4.112,4.112,0,0,1,3.818,0,4.267,4.267,0,0,1-.011,6.781A4.079,4.079,0,0,1,69.037,229.108Zm3.524-1.346a3.175,3.175,0,0,0,.582-2.05c.005-1.564-.636-2.739-2.2-2.755-1.573.015-2.215,1.185-2.211,2.755a3.174,3.174,0,0,0,.582,2.05A2.2,2.2,0,0,0,72.561,227.762Z" transform="translate(-58.63 -221.857)" fill="#fff"/>
              <path id="Path_2606" data-name="Path 2606" d="M113.012,222.019a.622.622,0,0,1,.63.865l-2.958,6.365a.816.816,0,0,1-1.431,0l-2.947-6.364a.673.673,0,0,1-.064-.256.692.692,0,0,1,1.292-.246l2.456,5.457,2.456-5.457A.584.584,0,0,1,113.012,222.019Z" transform="translate(-89.882 -221.987)" fill="#fff"/>
              <path id="Path_2607" data-name="Path 2607" d="M148.891,229.7a.638.638,0,0,1-.176-.481V223a.639.639,0,0,1,.176-.481.669.669,0,0,1,.486-.171h3.855a.744.744,0,0,1,.481.139.561.561,0,0,1,0,.806.724.724,0,0,1-.481.144H150.06v2.072h2.958c.377,0,.651.159.651.545s-.281.535-.651.534H150.06v2.2h3.172a.724.724,0,0,1,.481.144.561.561,0,0,1,0,.806.743.743,0,0,1-.481.139h-3.855A.668.668,0,0,1,148.891,229.7Z" transform="translate(-124.004 -222.25)" fill="#fff"/>
            </g>
          </g>
        </g>
        <g id="Group_3715" data-name="Group 3715" transform="translate(8.144 33.091)">
          <circle id="Ellipse_99" data-name="Ellipse 99" cx="10.274" cy="10.274" r="10.274" fill="#334353"/>
          <path id="Path_2608" data-name="Path 2608" d="M73.9,325.12a10.275,10.275,0,0,1-8.812,10.169,10.272,10.272,0,0,1,0-20.337A10.279,10.279,0,0,1,73.9,325.12Z" transform="translate(-53.348 -314.848)" fill="#3e4e60"/>
          <circle id="Ellipse_100" data-name="Ellipse 100" cx="5.799" cy="5.799" r="5.799" transform="translate(4.475 4.475)" fill="#decee5"/>
          <circle id="Ellipse_101" data-name="Ellipse 101" cx="2.502" cy="2.502" r="2.502" transform="translate(7.771 7.771)" fill="#c2aacf"/>
          <g id="Group_3714" data-name="Group 3714" transform="translate(5.205 5.25)">
            <circle id="Ellipse_102" data-name="Ellipse 102" cx="0.873" cy="0.873" r="0.873" transform="translate(4.195 4.151)" fill="#334353"/>
            <circle id="Ellipse_103" data-name="Ellipse 103" cx="0.873" cy="0.873" r="0.873" transform="translate(0 4.151)" fill="#334353"/>
            <circle id="Ellipse_104" data-name="Ellipse 104" cx="0.873" cy="0.873" r="0.873" transform="translate(4.195)" fill="#334353"/>
            <circle id="Ellipse_105" data-name="Ellipse 105" cx="0.873" cy="0.873" r="0.873" transform="translate(4.195 8.301)" fill="#334353"/>
            <circle id="Ellipse_106" data-name="Ellipse 106" cx="0.873" cy="0.873" r="0.873" transform="translate(8.39 4.151)" fill="#334353"/>
          </g>
        </g>
        <g id="Group_3717" data-name="Group 3717" transform="translate(37.586 35.1)">
          <path id="Path_2609" data-name="Path 2609" d="M191.17,329.077l30.779,8.246a2.3,2.3,0,0,0,2.812-1.623,2.362,2.362,0,0,0,.061-.317,2.293,2.293,0,0,0-1.684-2.494l-30.779-8.248-.552,2.061Z" transform="translate(-191.17 -324.642)" fill="#c2aacf"/>
          <g id="Group_3716" data-name="Group 3716" transform="translate(1.115)">
            <path id="Path_2610" data-name="Path 2610" d="M196.916,324.642a2.134,2.134,0,0,0,1.509,2.614l30.084,8.067a2.255,2.255,0,0,0,.871.061,2.293,2.293,0,0,0-1.684-2.494Z" transform="translate(-196.843 -324.642)" fill="#decee5"/>
            <path id="Path_2611" data-name="Path 2611" d="M317.379,381.015l-3.06-.82v5.249a1.53,1.53,0,0,0,3.06,0v-4.429Z" transform="translate(-291.222 -369.273)" fill="#decee5"/>
          </g>
        </g>
      </g>
      <g id="Group_3724" data-name="Group 3724" transform="translate(51.167 30.17)">
        <g id="Group_3720" data-name="Group 3720" transform="translate(5.528)">
          <path id="Path_2612" data-name="Path 2612" d="M292.217,156.675,289.264,167.7l19.38,5.193,2.953-11.021a4.119,4.119,0,0,0,.1-1.644h0a4.15,4.15,0,0,0-3.037-3.437L297.3,153.742a4.15,4.15,0,0,0-4.348,1.458h0A4.121,4.121,0,0,0,292.217,156.675Z" transform="translate(-289.086 -153.6)" fill="#be1913"/>
          <path id="Path_2613" data-name="Path 2613" d="M308.012,155.2h0a4.15,4.15,0,0,0,3.037,3.437l11.364,3.045a4.15,4.15,0,0,0,4.348-1.458h0a4.15,4.15,0,0,0-3.037-3.437l-11.364-3.045A4.15,4.15,0,0,0,308.012,155.2Z" transform="translate(-304.148 -153.6)" fill="#dd1608"/>
          <path id="Path_2614" data-name="Path 2614" d="M0,0H20.063V3.192H0Z" transform="translate(19.381 19.948) rotate(-164.991)" fill="#aa1813"/>
          <g id="Group_3719" data-name="Group 3719" transform="translate(6.857 0.926)">
            <path id="Path_2615" data-name="Path 2615" d="M347.453,164.6l7.381,1.978a.642.642,0,0,1-.332,1.239l-7.381-1.978a.642.642,0,1,1,.332-1.239Z" transform="translate(-342.042 -163.348)" fill="#ea4744"/>
            <path id="Path_2616" data-name="Path 2616" d="M324.042,158.331l2.138.573a.642.642,0,1,1-.332,1.239l-2.138-.573a.642.642,0,0,1,.332-1.239Z" transform="translate(-323.234 -158.309)" fill="#ea4744"/>
          </g>
        </g>
        <path id="Path_2617" data-name="Path 2617" d="M0,0H16.236V3.087H0Z" transform="translate(20.805 27.878) rotate(-164.991)" fill="#dd1608"/>
        <g id="Group_3721" data-name="Group 3721" transform="translate(4.572 14.351)">
          <path id="Path_2618" data-name="Path 2618" d="M283.848,229.648l-.289,1.08a1.813,1.813,0,0,0,1.282,2.22l15.683,4.2a1.813,1.813,0,0,0,2.22-1.282l.289-1.08a4.078,4.078,0,0,0,.1-.523,4.123,4.123,0,0,0-3.02-4.526l-11.22-3.006a4.124,4.124,0,0,0-4.879,2.41A4.075,4.075,0,0,0,283.848,229.648Z" transform="translate(-283.497 -226.591)" fill="#aa1813"/>
          <path id="Path_2619" data-name="Path 2619" d="M286.134,229.142a1.812,1.812,0,0,0,1.339,1.874l15.683,4.2a1.812,1.812,0,0,0,2.1-.953,4.12,4.12,0,0,0-3.02-4.526l-11.22-3.006a4.119,4.119,0,0,0-4.879,2.41Z" transform="translate(-285.612 -226.59)" fill="#dd1608"/>
          <path id="Path_2620" data-name="Path 2620" d="M304.7,230.514l11.984,3.211a.642.642,0,1,1-.332,1.239l-11.983-3.211a.642.642,0,0,1,.332-1.239Z" transform="translate(-299.883 -229.725)" fill="#ea4744"/>
        </g>
        <g id="Group_3722" data-name="Group 3722" transform="translate(0 9.991)">
          <path id="Path_2621" data-name="Path 2621" d="M262.631,206.507l-2.339,8.73a1.468,1.468,0,0,0,1.038,1.8l4.028,1.079,2.719-10.148a2.764,2.764,0,0,0,.066-.323,2.819,2.819,0,0,0-5.513-1.136Z" transform="translate(-260.242 -204.417)" fill="#be1913"/>
          <path id="Path_2622" data-name="Path 2622" d="M272.8,206.193a2.819,2.819,0,1,0,3.349-1.68A2.819,2.819,0,0,0,272.8,206.193Z" transform="translate(-270.311 -204.416)" fill="#dd1608"/>
          <path id="Path_2623" data-name="Path 2623" d="M269.7,233.486l-1.736,6.479,1.75.469,1.736-6.479a.887.887,0,0,0,.021-.1.906.906,0,0,0-1.771-.365Z" transform="translate(-266.448 -227.231)" fill="#dd1608"/>
          <ellipse id="Ellipse_107" data-name="Ellipse 107" cx="1.477" cy="0.821" rx="1.477" ry="0.821" transform="translate(3.31 3.258) rotate(-74.991)" fill="#ea4744"/>
        </g>
        <g id="Group_3723" data-name="Group 3723" transform="translate(20.8 15.653)">
          <path id="Path_2624" data-name="Path 2624" d="M368.751,235.3l-2.719,10.148,4.028,1.079a1.468,1.468,0,0,0,1.8-1.038l2.339-8.73a2.764,2.764,0,0,0,.066-.323,2.819,2.819,0,0,0-5.409-1.449,2.731,2.731,0,0,0-.1.313Z" transform="translate(-366.032 -233.212)" fill="#be1913"/>
          <path id="Path_2625" data-name="Path 2625" d="M380.27,234.989a2.819,2.819,0,1,0,3.349-1.68A2.819,2.819,0,0,0,380.27,234.989Z" transform="translate(-377.447 -233.212)" fill="#dd1608"/>
          <path id="Path_2626" data-name="Path 2626" d="M377.169,262.281l-1.736,6.479,1.75.469,1.736-6.479a.893.893,0,0,0,.021-.1.906.906,0,0,0-1.771-.365Z" transform="translate(-373.585 -256.026)" fill="#dd1608"/>
          <ellipse id="Ellipse_108" data-name="Ellipse 108" cx="1.477" cy="0.821" rx="1.477" ry="0.821" transform="translate(3.643 3.257) rotate(-74.991)" fill="#ea4744"/>
        </g>
      </g>
      <g id="Group_3741" data-name="Group 3741" transform="translate(75.463 44.007)">
        <g id="Group_3725" data-name="Group 3725" transform="translate(6.123 9.954)">
          <path id="Path_2627" data-name="Path 2627" d="M414.961,276.8v9.376h7.825V276.8a2.2,2.2,0,0,0-2.2-2.2h-3.426A2.2,2.2,0,0,0,414.961,276.8Z" transform="translate(-414.961 -274.603)" fill="#a95afe"/>
          <path id="Path_2628" data-name="Path 2628" d="M426.513,276.609a.362.362,0,0,1-.362-.362v-1.231a.409.409,0,0,1,.409-.409h2.608a.409.409,0,0,1,.409.409v1.231a.362.362,0,0,1-.362.362h0a.329.329,0,0,0-.329.329.313.313,0,0,1-.313.313h-1.419a.313.313,0,0,1-.313-.313A.329.329,0,0,0,426.513,276.609Z" transform="translate(-423.951 -274.605)" fill="#8a47de"/>
        </g>
        <g id="Group_3735" data-name="Group 3735" transform="translate(5.242)">
          <path id="Path_2629" data-name="Path 2629" d="M412.48,223.975h5.589a2,2,0,0,1,2,2v6.79a.47.47,0,0,1-.654.434,14.238,14.238,0,0,0-8.281,0,.47.47,0,0,1-.654-.434v-6.79A2,2,0,0,1,412.48,223.975Z" transform="translate(-410.48 -223.975)" fill="#9f482c"/>
          <g id="Group_3734" data-name="Group 3734" transform="translate(0 0.994)">
            <g id="Group_3726" data-name="Group 3726" transform="translate(3.514 8.123)">
              <path id="Path_2630" data-name="Path 2630" d="M428.355,270.345v.838a1.28,1.28,0,1,0,2.56,0v-.838Z" transform="translate(-428.355 -270.345)" fill="#fdc8bb"/>
              <path id="Path_2631" data-name="Path 2631" d="M428.355,270.345v.724a1.87,1.87,0,0,0,2.56,0v-.724Z" transform="translate(-428.355 -270.345)" fill="#f78c87"/>
            </g>
            <g id="Group_3727" data-name="Group 3727" transform="translate(0.881)">
              <path id="Path_2632" data-name="Path 2632" d="M414.959,230.9v2.783a2.65,2.65,0,0,0,.927,2.013l1.707,1.463a1.862,1.862,0,0,0,.5.335l.092.039a1.871,1.871,0,0,0,1.967-.375l1.707-1.463a2.649,2.649,0,0,0,.925-2.013V230.9a1.863,1.863,0,0,0-1.863-1.864h-4.1A1.864,1.864,0,0,0,414.959,230.9Z" transform="translate(-414.959 -229.032)" fill="#fbb3a5"/>
              <path id="Path_2633" data-name="Path 2633" d="M414.959,230.9v2.783a2.65,2.65,0,0,0,.927,2.013l1.707,1.463a.541.541,0,0,0,1,0l1.707-1.463a2.649,2.649,0,0,0,.925-2.013V230.9a1.864,1.864,0,0,0-1.863-1.864h-2.541A1.864,1.864,0,0,0,414.959,230.9Z" transform="translate(-414.959 -229.033)" fill="#fdc8bb"/>
            </g>
            <path id="Path_2634" data-name="Path 2634" d="M411.264,244.688h.1v1.569h-.1a.785.785,0,0,1,0-1.569Z" transform="translate(-410.48 -241.61)" fill="#fdc8bb"/>
            <path id="Path_2635" data-name="Path 2635" d="M454.864,246.256h-.1v-1.569h.1a.785.785,0,0,1,0,1.569Z" transform="translate(-446.06 -241.609)" fill="#fbb3a5"/>
            <path id="Path_2636" data-name="Path 2636" d="M431.884,252.668h.671a.312.312,0,1,1,0,.624h-.671a.312.312,0,0,1,0-.624Z" transform="translate(-427.425 -248.021)" fill="#fbb3a5"/>
            <g id="Group_3733" data-name="Group 3733" transform="translate(1.797 2.796)">
              <ellipse id="Ellipse_109" data-name="Ellipse 109" cx="0.41" cy="0.537" rx="0.41" ry="0.537" transform="translate(0.779 0.92)" fill="#1a2f5d"/>
              <ellipse id="Ellipse_110" data-name="Ellipse 110" cx="0.41" cy="0.537" rx="0.41" ry="0.537" transform="translate(4.4 0.92)" fill="#1a2f5d"/>
              <g id="Group_3728" data-name="Group 3728" transform="translate(0.253 0.741)">
                <path id="Path_2637" data-name="Path 2637" d="M421.085,247.581a.178.178,0,0,0,.087-.023,1.353,1.353,0,0,1,1.337,0,.179.179,0,1,0,.173-.313,1.7,1.7,0,0,0-1.684,0,.179.179,0,0,0,.087.335Z" transform="translate(-420.906 -247.022)" fill="#1a2f5d"/>
              </g>
              <g id="Group_3729" data-name="Group 3729" transform="translate(3.874 0.741)">
                <path id="Path_2638" data-name="Path 2638" d="M439.5,247.581a.177.177,0,0,0,.087-.023,1.353,1.353,0,0,1,1.337,0,.179.179,0,0,0,.173-.313,1.7,1.7,0,0,0-1.684,0,.179.179,0,0,0,.087.335Z" transform="translate(-439.321 -247.022)" fill="#1a2f5d"/>
              </g>
              <g id="Group_3730" data-name="Group 3730">
                <path id="Path_2639" data-name="Path 2639" d="M419.8,243.794a.178.178,0,0,0,.064-.012,2.692,2.692,0,0,1,1.891,0,.179.179,0,1,0,.127-.334,3.049,3.049,0,0,0-2.145,0,.179.179,0,0,0,.064.346Z" transform="translate(-419.617 -243.253)" fill="#9f482c"/>
              </g>
              <g id="Group_3731" data-name="Group 3731" transform="translate(1.81 3.205)">
                <path id="Path_2640" data-name="Path 2640" d="M431.02,259.556a.178.178,0,0,0-.064.012,2.692,2.692,0,0,1-1.891,0,.179.179,0,1,0-.127.334,3.049,3.049,0,0,0,2.145,0,.179.179,0,0,0-.064-.346Z" transform="translate(-428.824 -259.556)" fill="#f78c87"/>
              </g>
              <g id="Group_3732" data-name="Group 3732" transform="translate(3.62)">
                <path id="Path_2641" data-name="Path 2641" d="M438.21,243.794a.178.178,0,0,0,.064-.012,2.692,2.692,0,0,1,1.891,0,.179.179,0,1,0,.127-.334,3.049,3.049,0,0,0-2.145,0,.179.179,0,0,0,.064.346Z" transform="translate(-438.031 -243.253)" fill="#9f482c"/>
              </g>
            </g>
          </g>
          <path id="Path_2642" data-name="Path 2642" d="M415.312,227h5.353a1.453,1.453,0,0,1,1.453,1.453v.275a.941.941,0,0,1-.941.941H414.8a.941.941,0,0,1-.941-.941v-.275A1.453,1.453,0,0,1,415.312,227Z" transform="translate(-413.195 -226.408)" fill="#a75c37"/>
        </g>
        <g id="Group_3736" data-name="Group 3736" transform="translate(0 12.213)">
          <path id="Path_2643" data-name="Path 2643" d="M414.44,287.283a2.971,2.971,0,0,1-.974,2.942l-.619.524a3.541,3.541,0,0,1-2.289.809H405.3V289.1h2a5.518,5.518,0,0,0,3.567-1.26l1.741-1.485a1.039,1.039,0,0,1,1.669.41A4.577,4.577,0,0,1,414.44,287.283Z" transform="translate(-401.078 -286.091)" fill="#8a47de"/>
          <path id="Path_2644" data-name="Path 2644" d="M383.819,296.844v.814a.71.71,0,0,0,.709.71h3.515v-1.524h-.9a1.113,1.113,0,0,0-1.114-1.114h-1.092A1.114,1.114,0,0,0,383.819,296.844Z" transform="translate(-383.819 -293.835)" fill="#fdc8bb"/>
        </g>
        <g id="Group_3740" data-name="Group 3740" transform="translate(2.497 21.53)">
          <g id="Group_3737" data-name="Group 3737">
            <path id="Path_2645" data-name="Path 2645" d="M396.924,338.66l3.465,3.326.567.544,1.7-1.7-2.131-2.606a.468.468,0,0,1,.162-.718l2.785-1.321a.647.647,0,0,1,.282-.064.658.658,0,0,1,.642.515v0c0,.02.007.041.01.061l1.024,8.5,1.432.351,1.11.272V333.483h-7.826l-3.221,3.221a1.384,1.384,0,0,0,0,1.956Z" transform="translate(-396.519 -333.483)" fill="#dd5e26"/>
            <path id="Path_2646" data-name="Path 2646" d="M396.924,338.658l3.465,3.326.288-.288a1.357,1.357,0,0,0,.094-1.814l-1.618-1.989a.467.467,0,0,1,.162-.718l4.151-1.947a.868.868,0,0,1,.32-.1c.332,0,.328.2.42.534l.187.974v0c0,.02.007.041.01.061l1.024,8.5,1.432.351v-12.07h-6.715l-3.221,3.221a1.384,1.384,0,0,0,0,1.956Z" transform="translate(-396.519 -333.481)" fill="#ea792e"/>
          </g>
          <g id="Group_3738" data-name="Group 3738" transform="translate(5.355 11.465)">
            <path id="Path_2647" data-name="Path 2647" d="M424.155,393.1l5.02,1.325a.539.539,0,0,0,.676-.521v-1.236l-2.542-.623-2.6-.25a.842.842,0,0,0-.086,0,.881.881,0,0,0-.845.638A.538.538,0,0,0,424.155,393.1Z" transform="translate(-423.755 -391.796)" fill="#334353"/>
            <path id="Path_2648" data-name="Path 2648" d="M424.155,395.71l5.02,1.325a.539.539,0,0,0,.676-.521l-6.075-1.476A.538.538,0,0,0,424.155,395.71Z" transform="translate(-423.755 -394.401)" fill="#3e4e60"/>
          </g>
          <g id="Group_3739" data-name="Group 3739" transform="translate(3.475 7.351)">
            <path id="Path_2649" data-name="Path 2649" d="M414.414,375.255a.538.538,0,0,0,.816.038l2.851-3.021a.539.539,0,0,0-.146-.848l-1.082-.557-1.7,1.7-.838,1.558A1.039,1.039,0,0,0,414.414,375.255Z" transform="translate(-414.193 -370.867)" fill="#334353"/>
            <path id="Path_2650" data-name="Path 2650" d="M415.317,377.532a.537.537,0,0,0,.816.038l2.851-3.021a.539.539,0,0,0-.146-.848Z" transform="translate(-415.096 -373.144)" fill="#3e4e60"/>
          </g>
        </g>
      </g>
      <g id="Group_3759" data-name="Group 3759" transform="translate(38.443 29.439)">
        <g id="Group_3745" data-name="Group 3745" transform="translate(0 20.847)">
          <g id="Group_3742" data-name="Group 3742" transform="translate(0.329)">
            <path id="Path_2651" data-name="Path 2651" d="M209.755,263.734l-4.209,2.363-.689.387-1.224-2.078,2.73-2a.47.47,0,0,0,.023-.74l-2.377-1.987a.651.651,0,0,0-.259-.134.661.661,0,0,0-.754.339v0c-.009.019-.018.038-.025.057l-3.137,8.012-1.482-.019-1.149-.015,3.108-12.009,7.614,1.971,2.323,3.945a1.39,1.39,0,0,1-.492,1.9Z" transform="translate(-197.202 -255.915)" fill="#8a47de"/>
            <path id="Path_2652" data-name="Path 2652" d="M214.448,264.878l-4.209,2.363-.208-.353a1.363,1.363,0,0,1,.366-1.788l2.075-1.528a.47.47,0,0,0,.023-.74l-3.549-2.94a.874.874,0,0,0-.287-.177c-.323-.084-.369.111-.543.413l-.427.9v0c-.009.019-.018.038-.025.057l-3.137,8.012-1.482-.019,3.04-11.744,6.534,1.691,2.323,3.945A1.39,1.39,0,0,1,214.448,264.878Z" transform="translate(-201.895 -257.059)" fill="#a95afe"/>
          </g>
          <g id="Group_3743" data-name="Group 3743" transform="translate(0 12.009)">
            <path id="Path_2653" data-name="Path 2653" d="M201.292,318.847l-5.218.025a.542.542,0,0,1-.526-.677l.311-1.2,2.63.034,2.593.412a.835.835,0,0,1,.085.017.885.885,0,0,1,.662.833A.541.541,0,0,1,201.292,318.847Z" transform="translate(-195.53 -316.993)" fill="#334353"/>
            <path id="Path_2654" data-name="Path 2654" d="M201.292,323.761l-5.218.025a.542.542,0,0,1-.526-.677l6.282.094A.541.541,0,0,1,201.292,323.761Z" transform="translate(-195.53 -321.906)" fill="#3e4e60"/>
          </g>
          <g id="Group_3744" data-name="Group 3744" transform="translate(5.143 8.491)">
            <path id="Path_2655" data-name="Path 2655" d="M224.571,303.984a.54.54,0,0,1-.8-.169l-2.013-3.657a.541.541,0,0,1,.356-.789l1.193-.27,1.224,2.078.423,1.727A1.045,1.045,0,0,1,224.571,303.984Z" transform="translate(-221.687 -299.1)" fill="#334353"/>
            <path id="Path_2656" data-name="Path 2656" d="M224.571,305.085a.54.54,0,0,1-.8-.169l-2.013-3.657a.541.541,0,0,1,.356-.789Z" transform="translate(-221.687 -300.201)" fill="#3e4e60"/>
          </g>
        </g>
        <g id="Group_3746" data-name="Group 3746" transform="translate(3.437 10.067)">
          <path id="Path_2657" data-name="Path 2657" d="M222.986,204.714l-2.361,9.122-7.614-1.971,2.361-9.122a2.212,2.212,0,0,1,2.695-1.588l3.333.863A2.212,2.212,0,0,1,222.986,204.714Z" transform="translate(-213.011 -201.085)" fill="#53b976"/>
        </g>
        <g id="Group_3757" data-name="Group 3757" transform="translate(6.753)">
          <path id="Path_2658" data-name="Path 2658" d="M234.494,149.989l3,.777a3.268,3.268,0,0,1,2.345,3.983l-.505,1.952-9.329-2.415.505-1.952a3.268,3.268,0,0,1,3.983-2.345Z" transform="translate(-229.981 -149.883)" fill="#3d2322"/>
          <g id="Group_3755" data-name="Group 3755" transform="translate(0 1.275)">
            <g id="Group_3747" data-name="Group 3747" transform="translate(2.119 8.157)">
              <path id="Path_2659" data-name="Path 2659" d="M243.4,198.5l-.211.815a1.286,1.286,0,1,1-2.49-.645l.211-.815Z" transform="translate(-240.657 -197.856)" fill="#995444"/>
              <path id="Path_2660" data-name="Path 2660" d="M243.687,198.5l-.182.7a1.879,1.879,0,0,1-2.49-.645l.182-.7Z" transform="translate(-240.944 -197.855)" fill="#6d413c"/>
            </g>
            <g id="Group_3748" data-name="Group 3748" transform="translate(0.6)">
              <path id="Path_2661" data-name="Path 2661" d="M241.332,159.742l-.7,2.708a2.663,2.663,0,0,1-1.409,1.725l-2.029.993a1.87,1.87,0,0,1-.571.2l-.1.015a1.881,1.881,0,0,1-1.82-.86l-1.293-1.853a2.663,2.663,0,0,1-.394-2.192l.7-2.708A1.873,1.873,0,0,1,236,156.426l3.989,1.033a1.874,1.874,0,0,1,1.344,2.283Z" transform="translate(-232.931 -156.366)" fill="#774742"/>
              <path id="Path_2662" data-name="Path 2662" d="M247.531,161.347l-.7,2.708a2.663,2.663,0,0,1-1.409,1.725l-2.029.993a.544.544,0,0,1-.974-.252l-1.293-1.853a2.663,2.663,0,0,1-.394-2.192l.7-2.708a1.873,1.873,0,0,1,2.282-1.344l2.472.64a1.873,1.873,0,0,1,1.344,2.283Z" transform="translate(-239.13 -157.971)" fill="#995444"/>
            </g>
            <path id="Path_2663" data-name="Path 2663" d="M272.581,179.568l-.094-.024-.4,1.527.094.024a.789.789,0,1,0,.4-1.527Z" transform="translate(-263.792 -174.987)" fill="#995444"/>
            <path id="Path_2664" data-name="Path 2664" d="M230.469,170.818l.094.024.4-1.527-.094-.024a.789.789,0,1,0-.4,1.527Z" transform="translate(-229.877 -166.73)" fill="#774742"/>
            <path id="Path_2665" data-name="Path 2665" d="M250.118,181.995l-.653-.169a.313.313,0,0,0-.157.607l.653.169a.313.313,0,1,0,.157-.607Z" transform="translate(-245.299 -176.812)" fill="#774742"/>
            <g id="Group_3754" data-name="Group 3754" transform="translate(1.95 2.725)">
              <ellipse id="Ellipse_111" data-name="Ellipse 111" cx="0.54" cy="0.412" rx="0.54" ry="0.412" transform="matrix(0.251, -0.968, 0.968, 0.251, 3.885, 2.883)" fill="#3d2322"/>
              <ellipse id="Ellipse_112" data-name="Ellipse 112" cx="0.54" cy="0.412" rx="0.54" ry="0.412" transform="matrix(0.251, -0.968, 0.968, 0.251, 0.361, 1.971)" fill="#3d2322"/>
              <g id="Group_3749" data-name="Group 3749" transform="translate(3.574 1.695)">
                <path id="Path_2666" data-name="Path 2666" d="M259.575,179.633a.18.18,0,0,1-.079-.044,1.359,1.359,0,0,0-1.3-.338.18.18,0,1,1-.09-.348,1.712,1.712,0,0,1,1.638.426.18.18,0,0,1-.169.3Z" transform="translate(-257.971 -178.845)" fill="#3d2322"/>
              </g>
              <g id="Group_3750" data-name="Group 3750" transform="translate(0.051 0.783)">
                <path id="Path_2667" data-name="Path 2667" d="M241.657,174.995a.179.179,0,0,1-.079-.044,1.359,1.359,0,0,0-1.3-.338.18.18,0,1,1-.09-.348,1.712,1.712,0,0,1,1.638.426.18.18,0,0,1-.169.3Z" transform="translate(-240.053 -174.207)" fill="#3d2322"/>
              </g>
              <g id="Group_3751" data-name="Group 3751" transform="translate(3.522 0.915)">
                <path id="Path_2668" data-name="Path 2668" d="M259.789,175.792a.176.176,0,0,1-.058-.029,2.705,2.705,0,0,0-1.829-.514.18.18,0,1,1-.032-.358,3.065,3.065,0,0,1,2.075.583.179.179,0,0,1-.155.317Z" transform="translate(-257.705 -174.879)" fill="#512f2d"/>
              </g>
              <g id="Group_3752" data-name="Group 3752">
                <path id="Path_2669" data-name="Path 2669" d="M241.874,171.143a.177.177,0,0,1-.058-.029,2.705,2.705,0,0,0-1.827-.522.18.18,0,1,1-.031-.358,3.065,3.065,0,0,1,2.073.592.18.18,0,0,1-.157.317Z" transform="translate(-239.794 -170.224)" fill="#512f2d"/>
              </g>
              <g id="Group_3753" data-name="Group 3753" transform="translate(0.954 3.583)">
                <path id="Path_2670" data-name="Path 2670" d="M244.87,188.453a.181.181,0,0,1,.059.027,2.7,2.7,0,0,0,1.842.466.18.18,0,0,1,.041.357,3.063,3.063,0,0,1-2.09-.529.18.18,0,0,1,.147-.321Z" transform="translate(-244.647 -188.447)" fill="#6d413c"/>
              </g>
            </g>
          </g>
          <g id="Group_3756" data-name="Group 3756" transform="translate(0.843 0.477)">
            <path id="Path_2671" data-name="Path 2671" d="M238.241,152.569l.563.512a.7.7,0,0,0,.633.164l.738-.174a1,1,0,0,1,.852.191l.755.6a2.07,2.07,0,0,1,.73,2.067l-.484,2.179a.267.267,0,0,1-.477.1l-2.454-3.4a.609.609,0,0,0-.753-.2l-3.8,1.787a.267.267,0,0,1-.369-.317l.634-2.141a2.07,2.07,0,0,1,1.641-1.453l.952-.16a1,1,0,0,1,.838.246Z" transform="translate(-234.165 -152.309)" fill="#512f2d"/>
            <path id="Path_2672" data-name="Path 2672" d="M240.6,185.877l1.1.286c.366.095.779,0,.84-.237l.012-.045c.061-.235-.275-.437-.663-.448l-1.169-.034a.291.291,0,0,0-.293.2l-.006.021A.219.219,0,0,0,240.6,185.877Z" transform="translate(-239.19 -178.893)" fill="#512f2d"/>
            <path id="Path_2673" data-name="Path 2673" d="M251.769,187.649l1.13.292a.24.24,0,0,0,.306-.159l.006-.024a.311.311,0,0,0-.177-.339l-1.069-.526c-.33-.162-.7-.128-.757.108l-.012.045c-.061.235.225.513.573.6Z" transform="translate(-247.841 -180.013)" fill="#512f2d"/>
          </g>
        </g>
        <g id="Group_3758" data-name="Group 3758" transform="translate(5.651 11.877)">
          <path id="Path_2674" data-name="Path 2674" d="M225.709,210.635a2.986,2.986,0,0,0-1.428,2.768l.059.813a3.558,3.558,0,0,0,1.029,2.213l3.7,3.774,1.765-1.728-1.408-1.438a5.546,5.546,0,0,1-1.6-3.448l-.158-2.294a1.044,1.044,0,0,0-1.468-.91A4.485,4.485,0,0,0,225.709,210.635Z" transform="translate(-224.273 -210.291)" fill="#528f66"/>
          <path id="Path_2675" data-name="Path 2675" d="M256.119,254.944l-.584.572a.714.714,0,0,1-1.008-.01l-2.471-2.524,1.094-1.072.635.649a1.119,1.119,0,0,1,1.584.017l.768.784A1.12,1.12,0,0,1,256.119,254.944Z" transform="translate(-246.593 -243.728)" fill="#995444"/>
        </g>
      </g>
    </g>
  </g>
</svg>
