<svg xmlns="http://www.w3.org/2000/svg" width="176" height="179" viewBox="0 0 176 179">
  <g id="Group_3693" data-name="Group 3693" transform="translate(-5962 -2844)">
    <g id="Group_3690" data-name="Group 3690" transform="translate(1011)">
      <path id="Rectangle_1645" data-name="Rectangle 1645" d="M86,0h90a0,0,0,0,1,0,0V179a0,0,0,0,1,0,0H0a0,0,0,0,1,0,0V86A86,86,0,0,1,86,0Z" transform="translate(4951 2844)" fill="#fcf4ee" opacity="0.98"/>
    </g>
    <g id="Layer_x0020_1" transform="translate(4905.279 2886.038)">
      <g id="_497656200" transform="translate(1113 4)">
        <path id="Path_2494" data-name="Path 2494" d="M1173.706,98.8H1114.3a1.29,1.29,0,0,1-1.3-1.3V5.292A1.285,1.285,0,0,1,1114.3,4h65.741a1.288,1.288,0,0,1,1.3,1.292V56.163L1175,97.5A1.289,1.289,0,0,1,1173.706,98.8Z" transform="translate(-1113 -4)" fill="#057aff" fill-rule="evenodd"/>
        <g id="Group_3691" data-name="Group 3691" transform="translate(6.112 8.681)">
          <path id="Path_2495" data-name="Path 2495" d="M2331.815,7762.589H2278.3a1.294,1.294,0,1,1,0-2.589h53.518a1.294,1.294,0,1,1,0,2.589Z" transform="translate(-2277 -7727.958)" fill="#ebf4ff" fill-rule="evenodd"/>
          <path id="Path_2496" data-name="Path 2496" d="M2314.648,9807.594H2281.3a1.3,1.3,0,0,1,0-2.594h33.351a1.3,1.3,0,1,1,0,2.594Z" transform="translate(-2279.984 -9762.221)" fill="#ebf4ff" fill-rule="evenodd"/>
          <path id="Path_2497" data-name="Path 2497" d="M2308.058,11853.593H2281.3a1.3,1.3,0,1,1,0-2.593h26.762a1.3,1.3,0,1,1,0,2.593Z" transform="translate(-2279.984 -11797.479)" fill="#ebf4ff" fill-rule="evenodd"/>
          <path id="Path_2498" data-name="Path 2498" d="M2306.315,13902.594H2281.3a1.3,1.3,0,0,1,0-2.594h25.019a1.3,1.3,0,1,1,0,2.594Z" transform="translate(-2279.984 -13835.721)" fill="#ebf4ff" fill-rule="evenodd"/>
          <path id="Path_2499" data-name="Path 2499" d="M2310.038,15948.595H2281.3a1.3,1.3,0,0,1,0-2.6h28.741a1.3,1.3,0,0,1,0,2.6Z" transform="translate(-2279.984 -15870.977)" fill="#ebf4ff" fill-rule="evenodd"/>
          <path id="Path_2500" data-name="Path 2500" d="M6503.207,1681.1a1.319,1.319,0,0,1-.52-.11,1.3,1.3,0,0,1-.667-1.706l9.167-21.165a1.295,1.295,0,0,1,2.374,1.035l-9.167,21.149A1.279,1.279,0,0,1,6503.207,1681.1Z" transform="translate(-6479.727 -1657.336)" fill="#ebf4ff" fill-rule="evenodd"/>
          <path id="Path_2501" data-name="Path 2501" d="M5536.652,1709.3a4.649,4.649,0,1,1,4.646-4.652A4.668,4.668,0,0,1,5536.652,1709.3Zm0-6.7a2.055,2.055,0,1,0,2.054,2.053A2.06,2.06,0,0,0,5536.652,1702.594Z" transform="translate(-5514.91 -1699.776)" fill="#ebf4ff" fill-rule="evenodd"/>
          <path id="Path_2502" data-name="Path 2502" d="M7945.652,4700.3a4.649,4.649,0,1,1,4.646-4.652A4.654,4.654,0,0,1,7945.652,4700.3Zm0-6.705a2.056,2.056,0,1,0,2.053,2.053A2.061,2.061,0,0,0,7945.652,4693.594Z" transform="translate(-7911.261 -4675.072)" fill="#ebf4ff" fill-rule="evenodd"/>
        </g>
      </g>
      <g id="_497655648" transform="translate(1151.26 53.906)">
        <path id="Path_2503" data-name="Path 2503" d="M8422.447,9553.892a22.446,22.446,0,1,1,22.439-22.446A22.477,22.477,0,0,1,8422.447,9553.892Z" transform="translate(-8400 -9509)" fill="#ffd15b" fill-rule="evenodd"/>
        <path id="Path_2504" data-name="Path 2504" d="M9662.026,10948.374H9640.62a1.289,1.289,0,0,1-1.3-1.3v-12.637l-1.928,1.711a1.211,1.211,0,0,1-.852.337,1.291,1.291,0,0,1-.85-2.264l3.886-3.461a1.439,1.439,0,0,1,.167-.183l10.539-9.394a1.32,1.32,0,0,1,1.464-.185,1.624,1.624,0,0,1,.279.185l14.7,12.722a1.3,1.3,0,1,1-1.7,1.964l-1.743-1.5v12.706A1.235,1.235,0,0,1,9662.026,10948.374Z" transform="translate(-9628.77 -10913.446)" fill="#dc2400" fill-rule="evenodd"/>
        <path id="Path_2505" data-name="Path 2505" d="M11666.917,13371.722H11656v-11.309a3.231,3.231,0,0,1,3.024-3.413h4.873a3.229,3.229,0,0,1,3.02,3.413Z" transform="translate(-11638.904 -13336.796)" fill="#b21d00" fill-rule="evenodd"/>
        <path id="Path_2506" data-name="Path 2506" d="M11798.523,13510.987H11789v-10.9a2.881,2.881,0,0,1,2.636-3.086h4.253a2.881,2.881,0,0,1,2.636,3.086Z" transform="translate(-11771.205 -13476.061)" fill="#f8bc91" fill-rule="evenodd"/>
        <path id="Path_2507" data-name="Path 2507" d="M9850,15799h29.844v2.5H9850Z" transform="translate(-9842.387 -15765.976)" fill="#b6a08b" fill-rule="evenodd"/>
        <g id="Group_3692" data-name="Group 3692" transform="translate(6.484 7.413)">
          <path id="Path_2508" data-name="Path 2508" d="M9666.478,10933.908l-9.424-8.154-5.278-4.567a1.538,1.538,0,0,0-.277-.185,1.323,1.323,0,0,0-1.466.185l-10.536,9.394a1.623,1.623,0,0,0-.171.183l-3.884,3.461a1.318,1.318,0,0,0-.441.965l3.309-2.939a1.306,1.306,0,0,1,.163-.188l10.537-9.389a1.315,1.315,0,0,1,1.465-.189,1.185,1.185,0,0,1,.279.189l5.979,5.173,8.723,7.549a1.263,1.263,0,0,1,.429.772,1.3,1.3,0,0,0,.726-.419A1.314,1.314,0,0,0,9666.478,10933.908Z" transform="translate(-9635 -10920.859)" fill="#c62000" fill-rule="evenodd"/>
          <path id="Path_2509" data-name="Path 2509" d="M14780.023,13337.989v-12.1L14779,13325v12.989Z" transform="translate(-14751.991 -13312.377)" fill="#c62000" fill-rule="evenodd"/>
        </g>
      </g>
      <path id="Path_2510" data-name="Path 2510" d="M8422.447,9509a22.434,22.434,0,0,0-17.526,36.454,22.439,22.439,0,0,1,37.823-23.585,22.421,22.421,0,0,0-20.3-12.869Z" transform="translate(-7248.74 -9455.094)" fill="#fcc052" fill-rule="evenodd"/>
    </g>
  </g>
</svg>
