<svg xmlns="http://www.w3.org/2000/svg" width="176" height="179" viewBox="0 0 176 179">
  <g id="Group_3707" data-name="Group 3707" transform="translate(-7112 -2844)">
    <g id="Group_3706" data-name="Group 3706" transform="translate(237)">
      <g id="Group_3703" data-name="Group 3703" transform="translate(279)">
        <g id="Group_3697" data-name="Group 3697" transform="translate(256)">
          <g id="Group_3694" data-name="Group 3694" transform="translate(378)">
            <g id="Group_3690" data-name="Group 3690" transform="translate(1011)">
              <path id="Rectangle_1645" data-name="Rectangle 1645" d="M86,0h90a0,0,0,0,1,0,0V179a0,0,0,0,1,0,0H0a0,0,0,0,1,0,0V86A86,86,0,0,1,86,0Z" transform="translate(4951 2844)" fill="#fcf4ee" opacity="0.98"/>
            </g>
          </g>
        </g>
      </g>
    </g>
    <g id="room" transform="translate(7162.548 2898.55)">
      <g id="BULINE" transform="translate(-2.811 -2.81)">
        <circle id="Ellipse_94" data-name="Ellipse 94" cx="48.5" cy="48.5" r="48.5" transform="translate(-0.737 -0.74)" fill="#fcc8bc"/>
      </g>
      <g id="Icons" transform="translate(0.943 11.995)">
        <path id="Path_2582" data-name="Path 2582" d="M91.588,302.4a44.431,44.431,0,0,1-87.388,0Z" transform="translate(-4.2 -261.706)" fill="#60b7ff"/>
        <path id="Path_2583" data-name="Path 2583" d="M91.588,302.4a44.1,44.1,0,0,1-4.758,13.349H8.958A44.1,44.1,0,0,1,4.2,302.4Z" transform="translate(-4.2 -261.706)" fill="#f2f2f2"/>
        <path id="Path_2584" data-name="Path 2584" d="M88.46,280.54h35.776v9.006H88.46Z" transform="translate(-73.839 -243.639)" fill="#9d4930"/>
        <path id="Path_2585" data-name="Path 2585" d="M101.975,280.54H54.37v2.91h5.916v6.1H63.2v-1.291a4.81,4.81,0,0,1,4.819-4.8h33.961Z" transform="translate(-45.664 -243.639)" fill="#82462e"/>
        <path id="Path_2586" data-name="Path 2586" d="M111.308,69.3v2.379H82.725V69.3a1.407,1.407,0,0,0-1.406-1.407H78.576A1.407,1.407,0,0,0,77.17,69.3V93.182h39.693V69.3a1.407,1.407,0,0,0-1.406-1.407h-2.743a1.407,1.407,0,0,0-1.406,1.407Z" transform="translate(-64.508 -67.89)" fill="#a55c3b"/>
        <rect id="Rectangle_1652" data-name="Rectangle 1652" width="28.604" height="12.957" rx="1.86" transform="translate(18.206 8.34)" fill="#9d4930"/>
        <rect id="Rectangle_1653" data-name="Rectangle 1653" width="20.061" height="11.04" rx="5.52" transform="translate(22.479 14.28)" fill="#fff"/>
        <path id="Path_2587" data-name="Path 2587" d="M153.793,159.172v.5a1.55,1.55,0,0,1-1.55,1.55H135.28a1.551,1.551,0,0,1-1.55-1.55V151.73a1.55,1.55,0,0,1,1.55-1.55h.567v7.443a1.55,1.55,0,0,0,1.55,1.55Z" transform="translate(-111.253 -135.9)" fill="#cecece"/>
        <path id="Path_2588" data-name="Path 2588" d="M58.434,213.8H97.911a4.064,4.064,0,0,1,4.064,4.064v7.517H54.37v-7.517a4.064,4.064,0,0,1,4.064-4.064Z" transform="translate(-45.664 -188.481)" fill="#fff"/>
        <path id="Path_2589" data-name="Path 2589" d="M101.975,221.253v4.137H54.37v-7.519a4.062,4.062,0,0,1,3.956-4.061,7.443,7.443,0,0,0,7.443,7.443Z" transform="translate(-45.664 -188.489)" fill="#cecece"/>
        <path id="Path_2590" data-name="Path 2590" d="M54.37,280.54h5.916v15.177a1.971,1.971,0,0,1-1.971,1.971H56.341a1.971,1.971,0,0,1-1.971-1.971Z" transform="translate(-45.664 -243.639)" fill="#a55c3b"/>
        <path id="Path_2591" data-name="Path 2591" d="M294.63,280.54h5.914v15.177a1.971,1.971,0,0,1-1.971,1.971H296.6a1.971,1.971,0,0,1-1.973-1.971Z" transform="translate(-244.233 -243.639)" fill="#a55c3b"/>
        <path id="Path_2592" data-name="Path 2592" d="M54.37,280.54h5.914v2.91H54.37Z" transform="translate(-45.664 -243.639)" fill="#9d4930"/>
        <path id="Path_2593" data-name="Path 2593" d="M294.63,280.54h5.914v2.91H294.63Z" transform="translate(-244.233 -243.639)" fill="#9d4930"/>
        <circle id="Ellipse_95" data-name="Ellipse 95" cx="1.664" cy="1.664" r="1.664" transform="translate(47.954 8.952)" fill="#b76849"/>
        <circle id="Ellipse_96" data-name="Ellipse 96" cx="1.178" cy="1.178" r="1.178" transform="translate(48.44 5.973)" fill="#b76849"/>
        <path id="Path_2594" data-name="Path 2594" d="M355.147,206H373.61a1.815,1.815,0,0,1,1.815,1.815v18.77h-22.1v-18.77A1.815,1.815,0,0,1,355.147,206Z" transform="translate(-292.746 -182.034)" fill="#a55c3b"/>
        <rect id="Rectangle_1654" data-name="Rectangle 1654" width="16.195" height="6.778" rx="3.389" transform="translate(63.533 26.366)" fill="#9d4930"/>
        <path id="Path_2595" data-name="Path 2595" d="M371.34,270h14.177a1.01,1.01,0,0,1,1.01,1.01v8.475h-16.2V271A1.01,1.01,0,0,1,371.34,270Z" transform="translate(-306.797 -234.928)" fill="#9d4930"/>
        <g id="Group_3705" data-name="Group 3705" transform="translate(60.583 28.285)">
          <path id="Path_2596" data-name="Path 2596" d="M353.33,324.63h4.251v2.233a.477.477,0,0,1-.477.477h-3.3a.477.477,0,0,1-.477-.477Z" transform="translate(-353.33 -308.364)" fill="#82462e"/>
          <path id="Path_2597" data-name="Path 2597" d="M456.17,324.63h4.251v2.233a.477.477,0,0,1-.477.477h-3.3a.477.477,0,0,1-.477-.477Z" transform="translate(-438.324 -308.364)" fill="#82462e"/>
          <circle id="Ellipse_97" data-name="Ellipse 97" cx="1.47" cy="1.47" r="1.47" transform="translate(9.579)" fill="#82462e"/>
        </g>
      </g>
    </g>
  </g>
</svg>
